<svg width="137" height="137" viewBox="0 0 137 137" fill="none" xmlns="http://www.w3.org/2000/svg">
<circle cx="68.5" cy="68.5" r="68.5" fill="#E20613"/>
<path d="M41.3135 31.256C41.3135 31.662 41.3415 32.46 41.8175 33.104C42.5175 34.028 43.6935 34.154 44.2255 34.154C45.8915 34.154 47.3615 33.146 47.3615 31.284V23.892H45.9615V30.906C45.9615 31.214 45.9615 31.858 45.7235 32.264C45.4295 32.74 44.8975 32.978 44.3235 32.978C43.6095 32.978 43.1895 32.628 43.0215 32.362C42.8115 32.04 42.8115 31.606 42.7975 31.256H41.3135ZM55.6094 30.724C55.6374 29.576 55.7074 26.79 52.5574 26.79C52.1514 26.79 51.3114 26.832 50.6394 27.308C49.5334 28.078 49.2534 29.226 49.2534 30.612C49.2534 32.838 50.3034 34.21 52.5154 34.21C53.9294 34.21 54.6294 33.622 54.9374 33.272C55.4414 32.726 55.4974 32.152 55.5394 31.802H54.2234C54.1114 32.81 53.4254 33.258 52.5714 33.258C51.1294 33.258 50.5274 32.18 50.5554 30.724H55.6094ZM50.6114 29.8C50.6394 28.246 51.6754 27.728 52.5294 27.728C54.1534 27.728 54.2794 29.128 54.2654 29.8H50.6114ZM56.4587 27.91H57.7047V32.6C57.7047 33.748 58.2787 34.098 59.4827 34.098C59.9587 34.098 60.3367 34.056 60.5747 34.014V32.992C60.4627 33.02 60.2107 33.062 59.9447 33.062C59.0067 33.062 59.0067 32.474 59.0067 32.124V27.91H60.5747V26.944H59.0067V25.054L57.7047 25.474V26.944H56.4587V27.91ZM61.3868 34H66.6368V32.978H62.7588L66.6368 28.092V26.972H61.5828V27.966H65.1388L61.3868 32.642V34ZM67.3415 27.91H68.5875V32.6C68.5875 33.748 69.1615 34.098 70.3655 34.098C70.8415 34.098 71.2195 34.056 71.4575 34.014V32.992C71.3455 33.02 71.0935 33.062 70.8275 33.062C69.8895 33.062 69.8895 32.474 69.8895 32.124V27.91H71.4575V26.944H69.8895V25.054L68.5875 25.474V26.944H67.3415V27.91ZM81.8501 27.924C81.6821 27.63 81.1781 26.734 79.6661 26.734C78.0141 26.734 76.4881 27.896 76.4881 30.57C76.4881 33.65 78.5741 34.14 79.5121 34.14C79.9881 34.14 80.6741 34.014 81.2481 33.622C81.6121 33.37 81.7661 33.076 81.8781 32.88L81.9061 34H83.2221C83.1941 33.636 83.1661 33.034 83.1661 32.88V23.906H81.8501V27.924ZM81.8921 30.388C81.8921 30.934 81.8921 33.216 79.8201 33.216C78.2101 33.216 77.8881 31.774 77.8881 30.528C77.8881 30.052 77.8881 27.714 79.8201 27.714C80.5621 27.714 81.0801 28.064 81.3601 28.428C81.6541 28.806 81.8921 29.366 81.8921 30.388ZM85.4107 25.362H86.9927V23.92H85.4107V25.362ZM85.5507 34H86.8667V26.972H85.5507V34ZM95.2852 30.724C95.3132 29.576 95.3832 26.79 92.2332 26.79C91.8272 26.79 90.9872 26.832 90.3152 27.308C89.2092 28.078 88.9292 29.226 88.9292 30.612C88.9292 32.838 89.9792 34.21 92.1912 34.21C93.6052 34.21 94.3052 33.622 94.6132 33.272C95.1172 32.726 95.1732 32.152 95.2152 31.802H93.8992C93.7872 32.81 93.1012 33.258 92.2472 33.258C90.8052 33.258 90.2032 32.18 90.2312 30.724H95.2852ZM90.2872 29.8C90.3152 28.246 91.3512 27.728 92.2052 27.728C93.8292 27.728 93.9552 29.128 93.9412 29.8H90.2872ZM39.6004 51.622C39.4184 49.326 37.4024 48.752 35.9744 48.752C32.3764 48.752 31.5504 51.93 31.5504 54.058C31.5504 56.018 32.2364 59.154 35.7924 59.154C37.5284 59.154 39.3624 58.328 39.5724 56.34H38.0324C37.9904 56.578 37.9064 57.012 37.5424 57.404C37.1084 57.852 36.5204 58.006 35.9044 58.006C33.5944 58.006 33.0484 55.948 33.0484 54.044C33.0484 52.364 33.4824 49.872 35.9184 49.872C37.8644 49.872 38.0464 51.272 38.1024 51.622H39.6004ZM40.9443 54.016C40.9443 56.788 42.0643 59.238 45.5083 59.238C49.1063 59.238 50.1843 56.536 50.1843 53.848C50.1843 50.418 48.4203 48.626 45.6203 48.626C44.6823 48.626 43.2963 48.85 42.2463 49.984C41.1403 51.174 40.9443 52.868 40.9443 54.016ZM42.4143 53.932C42.4143 51.86 43.0723 49.802 45.6343 49.802C47.9443 49.802 48.7003 51.538 48.7003 53.834C48.7003 54.52 48.6163 56.116 47.7903 57.124C47.2023 57.824 46.3763 58.048 45.5503 58.048C44.7523 58.048 43.8843 57.838 43.3103 57.124C42.6103 56.256 42.4143 55.038 42.4143 53.932ZM51.46 62H55.156V61.3364H52.3924L53.4088 60.3704C53.5768 60.2024 54.316 59.438 54.484 59.228C55.114 58.43 55.1392 58.1444 55.1392 57.7748C55.1392 56.5316 54.232 56.078 53.3416 56.078C52.972 56.078 52.4848 56.1536 52.0816 56.498C51.5776 56.9348 51.5524 57.4892 51.544 57.7748H52.426C52.426 57.5564 52.4428 56.7584 53.3752 56.7584C54.2068 56.7584 54.3076 57.422 54.3076 57.7076C54.3076 58.0184 54.2152 58.2788 53.8792 58.7408C53.6188 59.0936 53.2996 59.4296 52.9804 59.7404L51.46 61.2356V62ZM56.5224 55.85H60.0364V54.786H56.5224V55.85ZM61.8985 59H63.2845V53.638L67.9465 59H69.9065L64.8945 53.414L69.4165 48.892H67.4985L63.2845 53.316V48.892H61.8985V59ZM70.375 55.57C70.375 57.628 71.509 59.238 73.833 59.238C76.227 59.238 77.389 57.53 77.389 55.472C77.389 54.002 76.759 51.79 73.945 51.79C71.187 51.79 70.375 53.834 70.375 55.57ZM71.747 55.486C71.747 53.288 73.105 52.756 73.945 52.756C75.177 52.756 75.989 53.68 75.989 55.43C75.989 57.544 74.855 58.258 73.861 58.258C72.363 58.258 71.747 56.928 71.747 55.486ZM78.8216 56.914C78.8076 58.608 80.1376 59.196 81.5656 59.196C82.2936 59.196 83.0356 59.098 83.6516 58.72C84.1696 58.398 84.6036 57.726 84.6036 56.942C84.6036 56.494 84.4636 56.004 84.0716 55.64C83.6516 55.248 83.2316 55.136 81.2856 54.674C80.9216 54.576 80.2916 54.422 80.2916 53.778C80.2916 52.77 81.5236 52.77 81.7196 52.77C82.1956 52.77 83.1196 52.854 83.0776 53.918H84.4216C84.4216 53.624 84.4216 53.288 84.2396 52.896C83.8196 52.056 82.5876 51.804 81.7056 51.804C80.0816 51.804 78.9616 52.644 78.9616 53.932C78.9616 55.402 80.1936 55.696 81.6636 56.032C82.7136 56.27 83.2036 56.396 83.2036 57.082C83.2036 57.32 83.1196 57.558 82.9796 57.74C82.6996 58.09 82.2936 58.188 81.7476 58.188C80.4736 58.188 80.1936 57.446 80.2076 56.914H78.8216ZM85.3736 52.91H86.6196V57.6C86.6196 58.748 87.1936 59.098 88.3976 59.098C88.8736 59.098 89.2516 59.056 89.4896 59.014V57.992C89.3776 58.02 89.1256 58.062 88.8596 58.062C87.9216 58.062 87.9216 57.474 87.9216 57.124V52.91H89.4896V51.944H87.9216V50.054L86.6196 50.474V51.944H85.3736V52.91ZM96.9657 55.724C96.9937 54.576 97.0637 51.79 93.9137 51.79C93.5077 51.79 92.6677 51.832 91.9957 52.308C90.8897 53.078 90.6097 54.226 90.6097 55.612C90.6097 57.838 91.6597 59.21 93.8717 59.21C95.2857 59.21 95.9857 58.622 96.2937 58.272C96.7977 57.726 96.8537 57.152 96.8957 56.802H95.5797C95.4677 57.81 94.7817 58.258 93.9277 58.258C92.4857 58.258 91.8837 57.18 91.9117 55.724H96.9657ZM91.9677 54.8C91.9957 53.246 93.0317 52.728 93.8857 52.728C95.5097 52.728 95.6357 54.128 95.6217 54.8H91.9677ZM98.935 59H100.251V54.954C100.251 53.54 101.133 52.854 102.085 52.854C102.533 52.854 102.995 53.008 103.331 53.33C103.653 53.652 103.709 54.072 103.709 54.534V59H105.053V54.226C105.053 52.07 103.135 51.832 102.505 51.832C100.909 51.832 100.405 52.812 100.251 53.106L100.237 51.972H98.921L98.935 52.784V59ZM35.4649 84H40.7149V82.978H36.8369L40.7149 78.092V76.972H35.6609V77.966H39.2169L35.4649 82.642V84ZM42.3576 76.972V81.69C42.3576 83.076 43.1696 84.07 44.9056 84.07C46.4176 84.07 46.8936 83.286 47.1456 82.796L47.1736 84H48.5456C48.5316 83.608 48.5036 82.824 48.5036 82.684V76.972H47.1456V80.948C47.1456 81.298 47.1456 81.844 46.8516 82.264C46.4736 82.824 45.8576 83.048 45.1996 83.048C43.8556 83.048 43.7016 82.18 43.7016 81.494V76.972H42.3576ZM50.4262 81.914C50.4122 83.608 51.7422 84.196 53.1702 84.196C53.8982 84.196 54.6402 84.098 55.2562 83.72C55.7742 83.398 56.2082 82.726 56.2082 81.942C56.2082 81.494 56.0682 81.004 55.6762 80.64C55.2562 80.248 54.8362 80.136 52.8902 79.674C52.5262 79.576 51.8962 79.422 51.8962 78.778C51.8962 77.77 53.1282 77.77 53.3242 77.77C53.8002 77.77 54.7242 77.854 54.6822 78.918H56.0262C56.0262 78.624 56.0262 78.288 55.8442 77.896C55.4242 77.056 54.1922 76.804 53.3102 76.804C51.6862 76.804 50.5662 77.644 50.5662 78.932C50.5662 80.402 51.7982 80.696 53.2682 81.032C54.3182 81.27 54.8082 81.396 54.8082 82.082C54.8082 82.32 54.7242 82.558 54.5842 82.74C54.3042 83.09 53.8982 83.188 53.3522 83.188C52.0782 83.188 51.7982 82.446 51.8122 81.914H50.4262ZM63.9082 80.724C63.9362 79.576 64.0062 76.79 60.8562 76.79C60.4502 76.79 59.6102 76.832 58.9382 77.308C57.8322 78.078 57.5522 79.226 57.5522 80.612C57.5522 82.838 58.6022 84.21 60.8142 84.21C62.2282 84.21 62.9282 83.622 63.2362 83.272C63.7402 82.726 63.7962 82.152 63.8382 81.802H62.5222C62.4102 82.81 61.7242 83.258 60.8702 83.258C59.4282 83.258 58.8262 82.18 58.8542 80.724H63.9082ZM58.9102 79.8C58.9382 78.246 59.9742 77.728 60.8282 77.728C62.4522 77.728 62.5782 79.128 62.5642 79.8H58.9102ZM65.8775 84H67.1935V79.954C67.1935 78.54 68.0755 77.854 69.0275 77.854C69.4755 77.854 69.9375 78.008 70.2735 78.33C70.5955 78.652 70.6515 79.072 70.6515 79.534V84H71.9955V79.226C71.9955 77.07 70.0775 76.832 69.4475 76.832C67.8515 76.832 67.3475 77.812 67.1935 78.106L67.1795 76.972H65.8635L65.8775 77.784V84ZM79.2661 77.924C79.0981 77.63 78.5941 76.734 77.0821 76.734C75.4301 76.734 73.9041 77.896 73.9041 80.57C73.9041 83.65 75.9901 84.14 76.9281 84.14C77.4041 84.14 78.0901 84.014 78.6641 83.622C79.0281 83.37 79.1821 83.076 79.2941 82.88L79.3221 84H80.6381C80.6101 83.636 80.5821 83.034 80.5821 82.88V73.906H79.2661V77.924ZM79.3081 80.388C79.3081 80.934 79.3081 83.216 77.2361 83.216C75.6261 83.216 75.3041 81.774 75.3041 80.528C75.3041 80.052 75.3041 77.714 77.2361 77.714C77.9781 77.714 78.4961 78.064 78.7761 78.428C79.0701 78.806 79.3081 79.366 79.3081 80.388ZM88.8047 80.724C88.8327 79.576 88.9027 76.79 85.7527 76.79C85.3467 76.79 84.5067 76.832 83.8347 77.308C82.7287 78.078 82.4487 79.226 82.4487 80.612C82.4487 82.838 83.4987 84.21 85.7107 84.21C87.1247 84.21 87.8247 83.622 88.1327 83.272C88.6367 82.726 88.6927 82.152 88.7347 81.802H87.4187C87.3067 82.81 86.6207 83.258 85.7667 83.258C84.3247 83.258 83.7227 82.18 83.7507 80.724H88.8047ZM83.8067 79.8C83.8347 78.246 84.8707 77.728 85.7247 77.728C87.3487 77.728 87.4747 79.128 87.4607 79.8H83.8067ZM90.774 84H92.09V79.954C92.09 78.54 92.972 77.854 93.924 77.854C94.372 77.854 94.834 78.008 95.17 78.33C95.492 78.652 95.548 79.072 95.548 79.534V84H96.892V79.226C96.892 77.07 94.974 76.832 94.344 76.832C92.748 76.832 92.244 77.812 92.09 78.106L92.076 76.972H90.76L90.774 77.784V84ZM48.7532 109H50.0692V98.906H48.7532V109ZM58.0956 109C57.9976 108.286 57.9836 107.348 57.9836 107.236L58.0396 103.876C58.0396 103.554 58.0256 103.218 57.8016 102.798C57.4236 102.084 56.3316 101.762 55.3096 101.762C54.5676 101.762 53.5736 101.93 53.0416 102.518C52.6356 102.994 52.5936 103.484 52.5516 103.848H53.8676C53.8816 103.568 53.9516 102.658 55.2816 102.658C55.6596 102.658 56.2336 102.77 56.4996 103.12C56.7516 103.428 56.7516 103.806 56.7516 104.674C56.3456 104.646 56.1356 104.632 55.7996 104.632C55.2396 104.632 54.1196 104.674 53.3636 105.094C52.3276 105.696 52.1316 106.592 52.1316 107.152C52.1316 108.314 52.9996 109.224 54.6096 109.224C55.1976 109.224 56.1496 109.112 56.7796 107.95C56.7796 108.314 56.8076 108.65 56.9056 109H58.0956ZM56.7516 105.584C56.7236 106.564 56.7096 106.956 56.4156 107.432C56.0936 107.922 55.5896 108.188 54.9176 108.188C53.7416 108.188 53.4616 107.418 53.4616 106.97C53.4616 105.542 55.4636 105.542 55.9956 105.542C56.3176 105.542 56.5136 105.556 56.7516 105.584ZM59.7709 106.914C59.7569 108.608 61.0869 109.196 62.5149 109.196C63.2429 109.196 63.9849 109.098 64.6009 108.72C65.1189 108.398 65.5529 107.726 65.5529 106.942C65.5529 106.494 65.4129 106.004 65.0209 105.64C64.6009 105.248 64.1809 105.136 62.2349 104.674C61.8709 104.576 61.2409 104.422 61.2409 103.778C61.2409 102.77 62.4729 102.77 62.6689 102.77C63.1449 102.77 64.0689 102.854 64.0269 103.918H65.3709C65.3709 103.624 65.3709 103.288 65.1889 102.896C64.7689 102.056 63.5369 101.804 62.6549 101.804C61.0309 101.804 59.9109 102.644 59.9109 103.932C59.9109 105.402 61.1429 105.696 62.6129 106.032C63.6629 106.27 64.1529 106.396 64.1529 107.082C64.1529 107.32 64.0689 107.558 63.9289 107.74C63.6489 108.09 63.2429 108.188 62.6969 108.188C61.4229 108.188 61.1429 107.446 61.1569 106.914H59.7709ZM66.7709 106.914C66.7569 108.608 68.0869 109.196 69.5149 109.196C70.2429 109.196 70.9849 109.098 71.6009 108.72C72.1189 108.398 72.5529 107.726 72.5529 106.942C72.5529 106.494 72.4129 106.004 72.0209 105.64C71.6009 105.248 71.1809 105.136 69.2349 104.674C68.8709 104.576 68.2409 104.422 68.2409 103.778C68.2409 102.77 69.4729 102.77 69.6689 102.77C70.1449 102.77 71.0689 102.854 71.0269 103.918H72.3709C72.3709 103.624 72.3709 103.288 72.1889 102.896C71.7689 102.056 70.5369 101.804 69.6549 101.804C68.0309 101.804 66.9109 102.644 66.9109 103.932C66.9109 105.402 68.1429 105.696 69.6129 106.032C70.6629 106.27 71.1529 106.396 71.1529 107.082C71.1529 107.32 71.0689 107.558 70.9289 107.74C70.6489 108.09 70.2429 108.188 69.6969 108.188C68.4229 108.188 68.1429 107.446 68.1569 106.914H66.7709ZM80.2529 105.724C80.2809 104.576 80.3509 101.79 77.2009 101.79C76.7949 101.79 75.9549 101.832 75.2829 102.308C74.1769 103.078 73.8969 104.226 73.8969 105.612C73.8969 107.838 74.9469 109.21 77.1589 109.21C78.5729 109.21 79.2729 108.622 79.5809 108.272C80.0849 107.726 80.1409 107.152 80.1829 106.802H78.8669C78.7549 107.81 78.0689 108.258 77.2149 108.258C75.7729 108.258 75.1709 107.18 75.1989 105.724H80.2529ZM75.2549 104.8C75.2829 103.246 76.3189 102.728 77.1729 102.728C78.7969 102.728 78.9229 104.128 78.9089 104.8H75.2549ZM82.2222 109H83.5382V104.954C83.5382 103.54 84.4202 102.854 85.3722 102.854C85.8202 102.854 86.2822 103.008 86.6182 103.33C86.9402 103.652 86.9962 104.072 86.9962 104.534V109H88.3402V104.226C88.3402 102.07 86.4222 101.832 85.7922 101.832C84.1962 101.832 83.6922 102.812 83.5382 103.106L83.5242 101.972H82.2082L82.2222 102.784V109Z" fill="white"/>
</svg>
