<svg width="103" height="102" viewBox="0 0 103 102" fill="none" xmlns="http://www.w3.org/2000/svg">
<circle cx="51.5" cy="51" r="49.5" fill="#E20613" stroke="#E20613" stroke-width="3"/>
<path d="M23.415 66.5825C23.415 59.5825 34.225 41.4125 37.495 36.0725C37.815 35.5625 38.485 35.4025 38.995 35.7225C39.135 35.8125 39.255 35.9325 39.345 36.0725C42.625 41.4125 53.425 59.5525 53.425 66.5825C53.425 74.8625 46.705 81.5825 38.425 81.5825C30.145 81.5825 23.425 74.8625 23.425 66.5825H23.415Z" stroke="white" stroke-width="1.7" stroke-linecap="round" stroke-linejoin="round"/>
<path d="M46.5647 70.8225C44.8147 73.8625 41.5647 75.7325 38.0547 75.7325" stroke="white" stroke-width="1.7" stroke-linecap="round" stroke-linejoin="round"/>
<path d="M63.7819 23.22C62.565 23.22 61.5619 24.223 61.5619 25.44V26.9893C59.9577 27.5588 58.5022 28.4231 57.2492 29.5216L55.8964 28.7584C54.8356 28.1658 53.4726 28.5402 52.8786 29.6025L50.7049 33.476C50.1065 34.5441 50.4968 35.9099 51.5605 36.5054L52.9133 37.2685C52.789 37.997 52.6821 38.737 52.6821 39.5C52.6821 40.2631 52.7905 40.9916 52.9133 41.72L51.5605 42.4832C50.4968 43.0786 50.1065 44.4445 50.7049 45.5125L52.8786 49.3861C53.4727 50.4484 54.8356 50.8227 55.8964 50.2301L57.2492 49.4786C58.5009 50.5755 59.9606 51.4297 61.5619 51.9992V53.5602C61.5619 54.7771 62.565 55.7802 63.7819 55.7802H68.2219C69.4389 55.7802 70.4419 54.7771 70.4419 53.5602V51.9992C72.0405 51.4297 73.4944 50.5727 74.7432 49.4786L76.096 50.2301C77.1569 50.8227 78.5313 50.4484 79.1254 49.3861C79.861 48.0289 80.6415 46.6617 81.2991 45.5125C81.8975 44.4445 81.4957 43.0786 80.4319 42.4832L79.0791 41.72C79.202 40.9916 79.3219 40.2632 79.3219 39.5C79.3219 38.7369 79.2034 37.9969 79.0791 37.2685L80.4319 36.5054C81.4957 35.9099 81.8974 34.5441 81.2991 33.476C80.523 32.1391 79.7512 30.7415 79.1254 29.6025C78.5313 28.5402 77.1569 28.1658 76.096 28.7584L74.7432 29.51C73.4944 28.4159 72.039 27.5588 70.4419 26.9893V25.44C70.4419 24.223 69.4389 23.22 68.2219 23.22H63.7819ZM63.7819 24.7H68.2219C68.644 24.7 68.9619 25.0179 68.9619 25.44V27.475C68.9619 27.7872 69.1831 28.0878 69.4822 28.1803C71.26 28.7266 72.8513 29.6791 74.165 30.9321C74.3948 31.1489 74.7691 31.1937 75.0437 31.0362L76.8243 30.0418C77.1943 29.8351 77.6236 29.9609 77.8303 30.3309L80.004 34.2044C80.2064 34.5672 80.0705 35.0167 79.7034 35.2219L77.9344 36.2163C77.6627 36.3709 77.5109 36.7091 77.5759 37.0141C77.7465 37.8148 77.8419 38.6473 77.8419 39.5C77.8419 40.3528 77.7465 41.1737 77.5759 41.9744C77.5109 42.2794 77.6627 42.6176 77.9344 42.7722L79.7034 43.7666C80.0705 43.9718 80.2064 44.4213 80.004 44.7841L77.8303 48.6576C77.6236 49.0276 77.1943 49.1533 76.8243 48.9467L75.0437 47.9523C74.7691 47.7948 74.3948 47.8396 74.165 48.0564C72.8512 49.3094 71.2599 50.2619 69.4822 50.8082C69.1802 50.9022 68.9576 51.2086 68.9619 51.5251V53.5601C68.9619 53.9821 68.644 54.3001 68.2219 54.3001H63.7819C63.3585 54.3001 63.0419 53.9821 63.0419 53.5601V51.5251C63.0463 51.2057 62.8165 50.8979 62.5101 50.8082C60.7323 50.2619 59.141 49.3094 57.8274 48.0564C57.5975 47.8381 57.2218 47.7948 56.9486 47.9523L55.168 48.9467C54.798 49.1534 54.3803 49.0276 54.1736 48.6576C53.3975 47.3207 52.6257 45.9231 51.9999 44.7841C51.7975 44.4213 51.9218 43.9718 52.2889 43.7666L54.058 42.7722C54.3297 42.6176 54.4814 42.2794 54.4164 41.9744C54.2458 41.1737 54.162 40.3528 54.162 39.5C54.162 38.6473 54.2458 37.8148 54.4164 37.0141C54.4814 36.7091 54.3297 36.3709 54.058 36.2163L52.2889 35.2219C51.9218 35.0167 51.7975 34.5672 51.9999 34.2044C52.7355 32.8473 53.516 31.48 54.1736 30.3309C54.3803 29.9609 54.798 29.8352 55.168 30.0418L56.9486 31.0362C57.2218 31.1937 57.5975 31.1489 57.8274 30.9321C59.1411 29.6791 60.7324 28.7266 62.5101 28.1803C62.8121 28.0921 63.0405 27.79 63.0419 27.475V25.44C63.0419 25.0179 63.3585 24.7 63.7819 24.7V24.7ZM66.0019 32.1C61.9234 32.1 58.6019 35.4213 58.6019 39.5C58.6019 43.5786 61.9233 46.9 66.0019 46.9C70.0805 46.9 73.4019 43.5786 73.4019 39.5C73.4019 35.4213 70.0806 32.1 66.0019 32.1V32.1ZM66.0019 33.58C69.2799 33.58 71.9219 36.222 71.9219 39.5C71.9219 42.7779 69.2799 45.42 66.0019 45.42C62.724 45.42 60.0819 42.7779 60.0819 39.5C60.0819 36.222 62.724 33.58 66.0019 33.58V33.58Z" fill="white"/>
</svg>
