<svg width="51" height="51" viewBox="0 0 51 51" fill="none" xmlns="http://www.w3.org/2000/svg">
<path d="M13.3155 23.6395C8.07223 23.6893 3.82495 27.9745 3.82495 33.2321C3.82495 35.7921 4.81904 38.1947 6.62398 40.0054C8.42893 41.8163 10.8315 42.8164 13.3917 42.8263H36.6227C41.9119 42.8263 46.2153 38.5212 46.2153 33.2337C46.2153 27.9445 41.9102 23.6412 36.6227 23.6412C35.537 23.6412 34.4851 23.8205 33.481 24.1671C32.8037 22.2805 31.5984 20.5911 30.0226 19.338C28.0942 17.802 25.7693 16.9912 23.2952 16.9912C18.9103 16.9832 14.9837 19.6288 13.3165 23.639L13.3155 23.6395ZM23.2962 18.9001C27.4121 18.9001 30.9661 21.6852 31.9402 25.6775C32.0119 25.9584 32.2012 26.1935 32.4602 26.315C32.7212 26.4365 33.026 26.4365 33.2869 26.309C34.3328 25.805 35.4544 25.55 36.6219 25.55C40.8553 25.55 44.302 28.9925 44.302 33.2301C44.302 37.4677 40.8595 40.9102 36.6219 40.9102L13.397 40.9121C9.17358 40.9022 5.73679 37.4537 5.73679 33.2321C5.73679 28.9987 9.18525 25.552 13.4169 25.552C13.5842 25.552 13.7476 25.5579 13.907 25.5679C14.3413 25.5978 14.7337 25.3328 14.8751 24.9205C16.1043 21.3186 19.491 18.8999 23.2963 18.8999L23.2962 18.9001Z" fill="black"/>
<path d="M43.6769 8.63429C43.5096 8.35937 43.2068 8.17609 42.8601 8.17609C42.6769 8.17609 42.5075 8.22788 42.3661 8.31355H42.3601C42.3541 8.31355 42.3501 8.31952 42.3501 8.32351C42.2844 8.36335 42.2167 8.41117 42.1609 8.47093L38.7801 11.8517C38.4076 12.2242 38.4076 12.8318 38.7801 13.2024C39.1527 13.5749 39.7603 13.5749 40.1308 13.2024L41.9059 11.4273V23.5398C42.5892 23.9163 43.2327 24.3606 43.8184 24.8666L43.8204 11.4812L45.5436 13.2044C45.7329 13.3936 45.9779 13.4853 46.2209 13.4853C46.466 13.4853 46.711 13.3936 46.8983 13.2044C47.2708 12.8319 47.2708 12.2242 46.8983 11.8537L43.6769 8.63429Z" fill="black"/>
<path d="M27.5798 13.208C27.9524 13.5805 28.56 13.5805 28.9305 13.208L30.7056 11.4329V18.0369C30.7773 18.0927 30.849 18.1445 30.9207 18.2003C31.5423 18.6943 32.108 19.2462 32.624 19.8478V11.4808L34.3472 13.204C34.5365 13.3933 34.7815 13.4849 35.0246 13.4849C35.2696 13.4849 35.5147 13.3933 35.7019 13.204C36.0744 12.8315 36.0744 12.2238 35.7019 11.8533L32.4845 8.63594C32.3172 8.36102 32.0144 8.17773 31.6677 8.17773C31.4844 8.17773 31.3151 8.22953 31.1736 8.3152H31.1677C31.1617 8.3152 31.1577 8.32117 31.1577 8.32516C31.092 8.365 31.0242 8.41281 30.9685 8.47258L27.5877 11.8533C27.2032 12.2298 27.2032 12.8375 27.5797 13.208L27.5798 13.208Z" fill="black"/>
<path d="M19.9715 8.31759C19.9656 8.31759 19.9656 8.31759 19.9715 8.31759C19.9656 8.32357 19.9616 8.32357 19.9556 8.32755C19.8899 8.36739 19.8221 8.41521 19.7663 8.47497L16.3856 11.8557C16.0131 12.2283 16.0131 12.8359 16.3856 13.2064C16.7581 13.5789 17.3658 13.5789 17.7363 13.2064L19.5113 11.4313V16.1488C20.1329 15.9456 20.7704 15.7922 21.4238 15.6906V11.4772L23.1471 13.2004C23.3363 13.3897 23.5814 13.4813 23.8244 13.4813C24.0695 13.4813 24.3145 13.3897 24.5017 13.2004C24.8743 12.8279 24.8743 12.2202 24.5017 11.8497L21.2844 8.63234C21.117 8.35742 20.8142 8.17413 20.4675 8.17413C20.2823 8.17613 20.1149 8.22593 19.9715 8.31757L19.9715 8.31759Z" fill="black"/>
</svg>
