<svg width="45" height="56" viewBox="0 0 45 56" fill="none" xmlns="http://www.w3.org/2000/svg">
<path d="M2.84998 35.87H1.99998C1.99998 36.3395 2.38053 36.72 2.84998 36.72V35.87ZM16.93 5.36002L16.2099 4.90823L16.2051 4.91613L16.93 5.36002ZM18.43 5.01002L18.8896 4.29498L18.8817 4.29002L18.43 5.01002ZM18.78 5.36002L19.5043 4.91515C19.5012 4.91019 19.4981 4.90527 19.495 4.90038L18.78 5.36002ZM2.85998 35.87H3.70998C3.70998 35.4006 3.32942 35.02 2.85998 35.02V35.87ZM26.7366 40.5341C26.9708 40.1272 26.8309 39.6076 26.424 39.3734C26.0172 39.1392 25.4975 39.2791 25.2633 39.686L26.7366 40.5341ZM17.49 44.17C17.0205 44.17 16.64 44.5506 16.64 45.02C16.64 45.4895 17.0205 45.87 17.49 45.87V44.17ZM29.8 30.66L29.5907 31.4839C30.0115 31.5907 30.4452 31.3633 30.5966 30.9564C30.748 30.5495 30.5684 30.0939 30.1801 29.8998L29.8 30.66ZM25.48 28.11L26.0658 27.4941L26.0629 27.4914L25.48 28.11ZM23.53 23.73H22.68C22.68 23.7351 22.68 23.7402 22.6801 23.7453L23.53 23.73ZM26.7 16.77L26.0852 16.183L26.0847 16.1835L26.7 16.77ZM30.94 8.50002L30.1065 8.33332C30.1052 8.33987 30.1039 8.34644 30.1028 8.35302L30.94 8.50002ZM31.3 8.38002L30.6989 8.98106C30.7112 8.99332 30.7238 9.00519 30.7368 9.01667L31.3 8.38002ZM31.82 8.84002L32.3914 8.21066L32.3832 8.20338L31.82 8.84002ZM38.29 16.39L39.0343 15.9795L39.0339 15.9789L38.29 16.39ZM40.07 23.67L39.2202 23.6499C39.2201 23.6566 39.22 23.6633 39.22 23.67H40.07ZM33.76 30.63L33.5938 29.7964L33.5912 29.7969L33.76 30.63ZM29.78 30.65L29.9921 29.8269C29.5712 29.7184 29.1362 29.945 28.9839 30.3522C28.8315 30.7594 29.011 31.2158 29.3998 31.4103L29.78 30.65ZM33.9794 19.2309C33.9965 18.7618 33.63 18.3676 33.1609 18.3506C32.6917 18.3335 32.2976 18.7 32.2805 19.1691L33.9794 19.2309ZM33.09 20.3L32.2405 20.2691C32.2402 20.2794 32.24 20.2897 32.24 20.3H33.09ZM32.42 23.13L33.1774 23.5159C33.1795 23.5117 33.1816 23.5074 33.1837 23.5032L32.42 23.13ZM31.29 24.51L31.6701 25.2703C31.725 25.2429 31.7767 25.2096 31.8244 25.171L31.29 24.51ZM31.1 24.55L30.9333 25.3835C30.9882 25.3945 31.044 25.4 31.1 25.4V24.55ZM30.96 24.49L31.3973 23.7612C31.386 23.7544 31.3746 23.7479 31.363 23.7416L30.96 24.49ZM30.58 24.26L31.09 23.58C31.0736 23.5678 31.0568 23.5561 31.0396 23.545L30.58 24.26ZM29.18 23.2L29.6957 22.5243L29.69 22.52L29.18 23.2ZM28.93 23.23L28.2846 22.6768C28.2394 22.7296 28.2008 22.7877 28.1697 22.8499L28.93 23.23ZM28.91 23.26L28.3089 22.659C28.238 22.7299 28.1802 22.8128 28.1382 22.9038L28.91 23.26ZM28.05 25.86L28.8996 25.8854L28.8996 25.8847L28.05 25.86ZM30.05 30.29L30.4031 29.5169L30.402 29.5163L30.05 30.29ZM33.6 30.23L33.914 31.0199L33.9157 31.0192L33.6 30.23ZM36.1 25.25L36.9498 25.268L36.9499 25.2605L36.1 25.25ZM33.84 20.02L34.4953 19.4787L34.493 19.4759L33.84 20.02ZM33.793 18.6359C33.4924 18.2752 32.9565 18.2265 32.5958 18.527C32.2352 18.8276 32.1865 19.3635 32.487 19.7242L33.793 18.6359ZM25.8502 17.6812L26.4847 18.2469L26.4847 18.2469L25.8502 17.6812ZM32.8448 31.2495C32.7064 30.8009 32.2306 30.5494 31.782 30.6878C31.3334 30.8261 31.0819 31.3019 31.2203 31.7505L32.8448 31.2495ZM3.69998 35.87C3.69998 34.288 4.32336 31.9655 5.3836 29.2054C6.43309 26.4734 7.87177 23.4086 9.42054 20.3795C12.5172 14.323 16.0241 8.46693 17.6549 5.80391L16.2051 4.91613C14.5658 7.59312 11.0328 13.492 7.90691 19.6056C6.34443 22.6615 4.87623 25.7854 3.79666 28.5958C2.72784 31.3783 1.99998 33.9521 1.99998 35.87H3.69998ZM17.65 5.81179C17.7254 5.69155 17.8737 5.66445 17.9782 5.73003L18.8817 4.29002C17.9663 3.71559 16.7745 4.0085 16.21 4.90826L17.65 5.81179ZM17.9703 5.72502C18.0079 5.74918 18.0408 5.78209 18.065 5.81967L19.495 4.90038C19.3391 4.65795 19.132 4.45087 18.8896 4.29502L17.9703 5.72502ZM32.01 35.87C32.01 43.6806 25.6705 50.02 17.86 50.02V51.72C26.6094 51.72 33.71 44.6195 33.71 35.87H32.01ZM17.86 50.02C10.049 50.02 3.70998 43.6902 3.70998 35.87H2.00998C2.00998 44.6298 9.1109 51.72 17.86 51.72V50.02ZM2.85998 35.02H2.84998V36.72H2.85998V35.02ZM25.2633 39.686C23.6658 42.461 20.6976 44.17 17.49 44.17V45.87C21.3024 45.87 24.8341 43.839 26.7366 40.5341L25.2633 39.686ZM32.8304 31.5766L34.2204 31.3266L33.9195 29.6534L32.5295 29.9034L32.8304 31.5766ZM30.0092 29.8362C28.8123 29.5322 28.1379 29.2198 27.6307 28.8785C27.0969 28.5194 26.7222 28.1185 26.0658 27.4941L24.8941 28.7259C25.4678 29.2715 25.993 29.8257 26.6817 30.289C27.3971 30.7703 28.2676 31.1478 29.5907 31.4839L30.0092 29.8362ZM26.0629 27.4914C25.016 26.5051 24.4056 25.1512 24.3798 23.7148L22.6801 23.7453C22.7143 25.6489 23.5239 27.435 24.8971 28.7287L26.0629 27.4914ZM27.3147 17.357C28.1583 16.4735 29.0766 15.5108 29.878 14.155C30.6834 12.7924 31.3521 11.0679 31.7772 8.64702L30.1028 8.35302C29.7079 10.6021 29.1015 12.1277 28.4145 13.29C27.7234 14.4592 26.9316 15.2965 26.0852 16.183L27.3147 17.357ZM31.7735 8.66672C31.7324 8.87212 31.5321 9.17002 31.14 9.17002V7.47002C30.5479 7.47002 30.1876 7.92793 30.1065 8.33332L31.7735 8.66672ZM31.14 9.17002C31.0313 9.17002 30.8544 9.13654 30.6989 8.98106L31.901 7.77898C31.6655 7.5435 31.3687 7.47002 31.14 7.47002V9.17002ZM30.7368 9.01667L31.2568 9.47667L32.3832 8.20338L31.8632 7.74338L30.7368 9.01667ZM31.2486 9.46933C34.3665 12.3002 36.3503 14.6374 37.546 16.8012L39.0339 15.9789C37.7097 13.5826 35.5734 11.0998 32.3913 8.21071L31.2486 9.46933ZM37.5457 16.8005C38.7026 18.8981 39.2767 21.2594 39.2202 23.6499L40.9197 23.6901C40.9833 21.0007 40.3373 18.342 39.0343 15.9795L37.5457 16.8005ZM39.22 23.67C39.22 26.9274 36.271 29.2628 33.5938 29.7964L33.9261 31.4636C37.069 30.8372 40.92 28.0327 40.92 23.67H39.22ZM33.5912 29.7969C32.1604 30.0869 30.8134 30.0386 29.9921 29.8269L29.5678 31.4731C30.6865 31.7614 32.2996 31.7932 33.9288 31.4631L33.5912 29.7969ZM29.3998 31.4103L29.4198 31.4203L30.1801 29.8998L30.1601 29.8898L29.3998 31.4103ZM32.2805 19.1691L32.2405 20.2691L33.9394 20.3309L33.9794 19.2309L32.2805 19.1691ZM32.24 20.3C32.24 21.1418 32.0335 21.9848 31.6563 22.7568L33.1837 23.5032C33.6664 22.5153 33.94 21.4183 33.94 20.3H32.24ZM31.6626 22.7442C31.4503 23.161 31.1389 23.5391 30.7556 23.849L31.8244 25.171C32.381 24.721 32.8497 24.1591 33.1774 23.5159L31.6626 22.7442ZM30.9098 23.7498C30.8818 23.7638 30.9023 23.7526 30.9315 23.7416C30.9643 23.7293 31.0507 23.7 31.17 23.7V25.4C31.3292 25.4 31.4556 25.3607 31.5284 25.3334C31.5976 25.3075 31.6582 25.2763 31.6701 25.2703L30.9098 23.7498ZM31.17 23.7C31.1699 23.7 31.1699 23.7 31.1699 23.7C31.1698 23.7 31.1698 23.7 31.1697 23.7C31.1697 23.7 31.1697 23.7 31.1696 23.7C31.1696 23.7 31.1695 23.7 31.1695 23.7C31.1695 23.7 31.1694 23.7 31.1694 23.7C31.1693 23.7 31.1693 23.7 31.1693 23.7C31.1692 23.7 31.1692 23.7 31.1692 23.7C31.1691 23.7 31.1691 23.7 31.169 23.7C31.169 23.7 31.169 23.7 31.1689 23.7C31.1689 23.7 31.1688 23.7 31.1688 23.7C31.1688 23.7 31.1687 23.7 31.1687 23.7C31.1686 23.7 31.1686 23.7 31.1686 23.7C31.1685 23.7 31.1685 23.7 31.1684 23.7C31.1684 23.7 31.1684 23.7 31.1683 23.7C31.1683 23.7 31.1682 23.7 31.1682 23.7C31.1682 23.7 31.1681 23.7 31.1681 23.7C31.168 23.7 31.168 23.7 31.168 23.7C31.1679 23.7 31.1679 23.7 31.1678 23.7C31.1678 23.7 31.1678 23.7 31.1677 23.7C31.1677 23.7 31.1676 23.7 31.1676 23.7C31.1675 23.7 31.1675 23.7 31.1675 23.7C31.1674 23.7 31.1674 23.7 31.1673 23.7C31.1673 23.7 31.1673 23.7 31.1672 23.7C31.1672 23.7 31.1671 23.7 31.1671 23.7C31.1671 23.7 31.167 23.7 31.167 23.7C31.1669 23.7 31.1669 23.7 31.1669 23.7C31.1668 23.7 31.1668 23.7 31.1667 23.7C31.1667 23.7 31.1667 23.7 31.1666 23.7C31.1666 23.7 31.1665 23.7 31.1665 23.7C31.1664 23.7 31.1664 23.7 31.1664 23.7C31.1663 23.7 31.1663 23.7 31.1662 23.7C31.1662 23.7 31.1662 23.7 31.1661 23.7C31.1661 23.7 31.166 23.7 31.166 23.7C31.1659 23.7 31.1659 23.7 31.1659 23.7C31.1658 23.7 31.1658 23.7 31.1657 23.7C31.1657 23.7 31.1657 23.7 31.1656 23.7C31.1656 23.7 31.1655 23.7 31.1655 23.7C31.1655 23.7 31.1654 23.7 31.1654 23.7C31.1653 23.7 31.1653 23.7 31.1652 23.7C31.1652 23.7 31.1652 23.7 31.1651 23.7C31.1651 23.7 31.165 23.7 31.165 23.7C31.1649 23.7 31.1649 23.7 31.1649 23.7C31.1648 23.7 31.1648 23.7 31.1647 23.7C31.1647 23.7 31.1647 23.7 31.1646 23.7C31.1646 23.7 31.1645 23.7 31.1645 23.7C31.1644 23.7 31.1644 23.7 31.1644 23.7C31.1643 23.7 31.1643 23.7 31.1642 23.7C31.1642 23.7 31.1641 23.7 31.1641 23.7C31.1641 23.7 31.164 23.7 31.164 23.7C31.1639 23.7 31.1639 23.7 31.1639 23.7C31.1638 23.7 31.1638 23.7 31.1637 23.7C31.1637 23.7 31.1636 23.7 31.1636 23.7C31.1636 23.7 31.1635 23.7 31.1635 23.7C31.1634 23.7 31.1634 23.7 31.1633 23.7C31.1633 23.7 31.1633 23.7 31.1632 23.7C31.1632 23.7 31.1631 23.7 31.1631 23.7C31.163 23.7 31.163 23.7 31.163 23.7C31.1629 23.7 31.1629 23.7 31.1628 23.7C31.1628 23.7 31.1627 23.7 31.1627 23.7C31.1627 23.7 31.1626 23.7 31.1626 23.7C31.1625 23.7 31.1625 23.7 31.1624 23.7C31.1624 23.7 31.1624 23.7 31.1623 23.7C31.1623 23.7 31.1622 23.7 31.1622 23.7C31.1621 23.7 31.1621 23.7 31.162 23.7C31.162 23.7 31.162 23.7 31.1619 23.7C31.1619 23.7 31.1618 23.7 31.1618 23.7C31.1617 23.7 31.1617 23.7 31.1617 23.7C31.1616 23.7 31.1616 23.7 31.1615 23.7C31.1615 23.7 31.1614 23.7 31.1614 23.7C31.1614 23.7 31.1613 23.7 31.1613 23.7C31.1612 23.7 31.1612 23.7 31.1611 23.7C31.1611 23.7 31.161 23.7 31.161 23.7C31.161 23.7 31.1609 23.7 31.1609 23.7C31.1608 23.7 31.1608 23.7 31.1607 23.7C31.1607 23.7 31.1607 23.7 31.1606 23.7C31.1606 23.7 31.1605 23.7 31.1605 23.7C31.1604 23.7 31.1604 23.7 31.1603 23.7C31.1603 23.7 31.1603 23.7 31.1602 23.7C31.1602 23.7 31.1601 23.7 31.1601 23.7C31.16 23.7 31.16 23.7 31.1599 23.7C31.1599 23.7 31.1599 23.7 31.1598 23.7C31.1598 23.7 31.1597 23.7 31.1597 23.7C31.1596 23.7 31.1596 23.7 31.1595 23.7C31.1595 23.7 31.1595 23.7 31.1594 23.7C31.1594 23.7 31.1593 23.7 31.1593 23.7C31.1592 23.7 31.1592 23.7 31.1591 23.7C31.1591 23.7 31.1591 23.7 31.159 23.7C31.159 23.7 31.1589 23.7 31.1589 23.7C31.1588 23.7 31.1588 23.7 31.1587 23.7C31.1587 23.7 31.1587 23.7 31.1586 23.7C31.1586 23.7 31.1585 23.7 31.1585 23.7C31.1584 23.7 31.1584 23.7 31.1583 23.7C31.1583 23.7 31.1583 23.7 31.1582 23.7C31.1582 23.7 31.1581 23.7 31.1581 23.7C31.158 23.7 31.158 23.7 31.1579 23.7C31.1579 23.7 31.1578 23.7 31.1578 23.7C31.1578 23.7 31.1577 23.7 31.1577 23.7C31.1576 23.7 31.1576 23.7 31.1575 23.7C31.1575 23.7 31.1574 23.7 31.1574 23.7C31.1574 23.7 31.1573 23.7 31.1573 23.7C31.1572 23.7 31.1572 23.7 31.1571 23.7C31.1571 23.7 31.157 23.7 31.157 23.7C31.1569 23.7 31.1569 23.7 31.1569 23.7C31.1568 23.7 31.1568 23.7 31.1567 23.7C31.1567 23.7 31.1566 23.7 31.1566 23.7C31.1565 23.7 31.1565 23.7 31.1564 23.7C31.1564 23.7 31.1564 23.7 31.1563 23.7C31.1563 23.7 31.1562 23.7 31.1562 23.7C31.1561 23.7 31.1561 23.7 31.156 23.7C31.156 23.7 31.1559 23.7 31.1559 23.7C31.1559 23.7 31.1558 23.7 31.1558 23.7C31.1557 23.7 31.1557 23.7 31.1556 23.7C31.1556 23.7 31.1555 23.7 31.1555 23.7C31.1554 23.7 31.1554 23.7 31.1554 23.7C31.1553 23.7 31.1553 23.7 31.1552 23.7C31.1552 23.7 31.1551 23.7 31.1551 23.7C31.155 23.7 31.155 23.7 31.1549 23.7C31.1549 23.7 31.1548 23.7 31.1548 23.7C31.1548 23.7 31.1547 23.7 31.1547 23.7C31.1546 23.7 31.1546 23.7 31.1545 23.7C31.1545 23.7 31.1544 23.7 31.1544 23.7C31.1543 23.7 31.1543 23.7 31.1542 23.7C31.1542 23.7 31.1542 23.7 31.1541 23.7C31.1541 23.7 31.154 23.7 31.154 23.7C31.1539 23.7 31.1539 23.7 31.1538 23.7C31.1538 23.7 31.1537 23.7 31.1537 23.7C31.1536 23.7 31.1536 23.7 31.1536 23.7C31.1535 23.7 31.1535 23.7 31.1534 23.7C31.1534 23.7 31.1533 23.7 31.1533 23.7C31.1532 23.7 31.1532 23.7 31.1531 23.7C31.1531 23.7 31.153 23.7 31.153 23.7C31.153 23.7 31.1529 23.7 31.1529 23.7C31.1528 23.7 31.1528 23.7 31.1527 23.7C31.1527 23.7 31.1526 23.7 31.1526 23.7C31.1525 23.7 31.1525 23.7 31.1524 23.7C31.1524 23.7 31.1523 23.7 31.1523 23.7C31.1523 23.7 31.1522 23.7 31.1522 23.7C31.1521 23.7 31.1521 23.7 31.152 23.7C31.152 23.7 31.1519 23.7 31.1519 23.7C31.1518 23.7 31.1518 23.7 31.1517 23.7C31.1517 23.7 31.1516 23.7 31.1516 23.7C31.1515 23.7 31.1515 23.7 31.1515 23.7C31.1514 23.7 31.1514 23.7 31.1513 23.7C31.1513 23.7 31.1512 23.7 31.1512 23.7C31.1511 23.7 31.1511 23.7 31.151 23.7C31.151 23.7 31.1509 23.7 31.1509 23.7C31.1508 23.7 31.1508 23.7 31.1508 23.7C31.1507 23.7 31.1507 23.7 31.1506 23.7C31.1506 23.7 31.1505 23.7 31.1505 23.7C31.1504 23.7 31.1504 23.7 31.1503 23.7C31.1503 23.7 31.1502 23.7 31.1502 23.7C31.1501 23.7 31.1501 23.7 31.15 23.7C31.15 23.7 31.1499 23.7 31.1499 23.7C31.1499 23.7 31.1498 23.7 31.1498 23.7C31.1497 23.7 31.1497 23.7 31.1496 23.7C31.1496 23.7 31.1495 23.7 31.1495 23.7C31.1494 23.7 31.1494 23.7 31.1493 23.7C31.1493 23.7 31.1492 23.7 31.1492 23.7C31.1491 23.7 31.1491 23.7 31.1491 23.7C31.149 23.7 31.149 23.7 31.1489 23.7C31.1489 23.7 31.1488 23.7 31.1488 23.7C31.1487 23.7 31.1487 23.7 31.1486 23.7C31.1486 23.7 31.1485 23.7 31.1485 23.7C31.1484 23.7 31.1484 23.7 31.1483 23.7C31.1483 23.7 31.1482 23.7 31.1482 23.7C31.1481 23.7 31.1481 23.7 31.1481 23.7C31.148 23.7 31.148 23.7 31.1479 23.7C31.1479 23.7 31.1478 23.7 31.1478 23.7C31.1477 23.7 31.1477 23.7 31.1476 23.7C31.1476 23.7 31.1475 23.7 31.1475 23.7C31.1474 23.7 31.1474 23.7 31.1473 23.7C31.1473 23.7 31.1472 23.7 31.1472 23.7C31.1471 23.7 31.1471 23.7 31.1471 23.7C31.147 23.7 31.147 23.7 31.1469 23.7C31.1469 23.7 31.1468 23.7 31.1468 23.7C31.1467 23.7 31.1467 23.7 31.1466 23.7C31.1466 23.7 31.1465 23.7 31.1465 23.7C31.1464 23.7 31.1464 23.7 31.1463 23.7C31.1463 23.7 31.1462 23.7 31.1462 23.7C31.1461 23.7 31.1461 23.7 31.146 23.7C31.146 23.7 31.1459 23.7 31.1459 23.7C31.1459 23.7 31.1458 23.7 31.1458 23.7C31.1457 23.7 31.1457 23.7 31.1456 23.7C31.1456 23.7 31.1455 23.7 31.1455 23.7C31.1454 23.7 31.1454 23.7 31.1453 23.7C31.1453 23.7 31.1452 23.7 31.1452 23.7C31.1451 23.7 31.1451 23.7 31.145 23.7C31.145 23.7 31.1449 23.7 31.1449 23.7C31.1448 23.7 31.1448 23.7 31.1447 23.7C31.1447 23.7 31.1447 23.7 31.1446 23.7C31.1446 23.7 31.1445 23.7 31.1445 23.7C31.1444 23.7 31.1444 23.7 31.1443 23.7C31.1443 23.7 31.1442 23.7 31.1442 23.7C31.1441 23.7 31.1441 23.7 31.144 23.7C31.144 23.7 31.1439 23.7 31.1439 23.7C31.1438 23.7 31.1438 23.7 31.1437 23.7C31.1437 23.7 31.1436 23.7 31.1436 23.7C31.1435 23.7 31.1435 23.7 31.1434 23.7C31.1434 23.7 31.1433 23.7 31.1433 23.7C31.1433 23.7 31.1432 23.7 31.1432 23.7C31.1431 23.7 31.1431 23.7 31.143 23.7C31.143 23.7 31.1429 23.7 31.1429 23.7C31.1428 23.7 31.1428 23.7 31.1427 23.7C31.1427 23.7 31.1426 23.7 31.1426 23.7C31.1425 23.7 31.1425 23.7 31.1424 23.7C31.1424 23.7 31.1423 23.7 31.1423 23.7C31.1422 23.7 31.1422 23.7 31.1421 23.7C31.1421 23.7 31.142 23.7 31.142 23.7C31.1419 23.7 31.1419 23.7 31.1418 23.7C31.1418 23.7 31.1417 23.7 31.1417 23.7C31.1417 23.7 31.1416 23.7 31.1416 23.7C31.1415 23.7 31.1415 23.7 31.1414 23.7C31.1414 23.7 31.1413 23.7 31.1413 23.7C31.1412 23.7 31.1412 23.7 31.1411 23.7C31.1411 23.7 31.141 23.7 31.141 23.7C31.1409 23.7 31.1409 23.7 31.1408 23.7C31.1408 23.7 31.1407 23.7 31.1407 23.7C31.1406 23.7 31.1406 23.7 31.1405 23.7C31.1405 23.7 31.1404 23.7 31.1404 23.7C31.1403 23.7 31.1403 23.7 31.1402 23.7C31.1402 23.7 31.1401 23.7 31.1401 23.7C31.14 23.7 31.14 23.7 31.14 23.7C31.1399 23.7 31.1399 23.7 31.1398 23.7C31.1398 23.7 31.1397 23.7 31.1397 23.7C31.1396 23.7 31.1396 23.7 31.1395 23.7C31.1395 23.7 31.1394 23.7 31.1394 23.7C31.1393 23.7 31.1393 23.7 31.1392 23.7C31.1392 23.7 31.1391 23.7 31.1391 23.7C31.139 23.7 31.139 23.7 31.1389 23.7C31.1389 23.7 31.1388 23.7 31.1388 23.7C31.1387 23.7 31.1387 23.7 31.1386 23.7C31.1386 23.7 31.1385 23.7 31.1385 23.7C31.1384 23.7 31.1384 23.7 31.1383 23.7C31.1383 23.7 31.1382 23.7 31.1382 23.7C31.1381 23.7 31.1381 23.7 31.1381 23.7C31.138 23.7 31.138 23.7 31.1379 23.7C31.1379 23.7 31.1378 23.7 31.1378 23.7C31.1377 23.7 31.1377 23.7 31.1376 23.7C31.1376 23.7 31.1375 23.7 31.1375 23.7C31.1374 23.7 31.1374 23.7 31.1373 23.7C31.1373 23.7 31.1372 23.7 31.1372 23.7C31.1371 23.7 31.1371 23.7 31.137 23.7C31.137 23.7 31.1369 23.7 31.1369 23.7C31.1368 23.7 31.1368 23.7 31.1367 23.7C31.1367 23.7 31.1366 23.7 31.1366 23.7C31.1365 23.7 31.1365 23.7 31.1364 23.7C31.1364 23.7 31.1363 23.7 31.1363 23.7C31.1362 23.7 31.1362 23.7 31.1361 23.7C31.1361 23.7 31.1361 23.7 31.136 23.7C31.136 23.7 31.1359 23.7 31.1359 23.7C31.1358 23.7 31.1358 23.7 31.1357 23.7C31.1357 23.7 31.1356 23.7 31.1356 23.7C31.1355 23.7 31.1355 23.7 31.1354 23.7C31.1354 23.7 31.1353 23.7 31.1353 23.7C31.1352 23.7 31.1352 23.7 31.1351 23.7C31.1351 23.7 31.135 23.7 31.135 23.7C31.1349 23.7 31.1349 23.7 31.1348 23.7C31.1348 23.7 31.1347 23.7 31.1347 23.7C31.1346 23.7 31.1346 23.7 31.1345 23.7C31.1345 23.7 31.1344 23.7 31.1344 23.7C31.1343 23.7 31.1343 23.7 31.1342 23.7C31.1342 23.7 31.1341 23.7 31.1341 23.7C31.134 23.7 31.134 23.7 31.134 23.7C31.1339 23.7 31.1339 23.7 31.1338 23.7C31.1338 23.7 31.1337 23.7 31.1337 23.7C31.1336 23.7 31.1336 23.7 31.1335 23.7C31.1335 23.7 31.1334 23.7 31.1334 23.7C31.1333 23.7 31.1333 23.7 31.1332 23.7C31.1332 23.7 31.1331 23.7 31.1331 23.7C31.133 23.7 31.133 23.7 31.1329 23.7C31.1329 23.7 31.1328 23.7 31.1328 23.7C31.1327 23.7 31.1327 23.7 31.1326 23.7C31.1326 23.7 31.1325 23.7 31.1325 23.7C31.1324 23.7 31.1324 23.7 31.1323 23.7C31.1323 23.7 31.1322 23.7 31.1322 23.7C31.1321 23.7 31.1321 23.7 31.132 23.7C31.132 23.7 31.132 23.7 31.1319 23.7C31.1319 23.7 31.1318 23.7 31.1318 23.7C31.1317 23.7 31.1317 23.7 31.1316 23.7C31.1316 23.7 31.1315 23.7 31.1315 23.7C31.1314 23.7 31.1314 23.7 31.1313 23.7C31.1313 23.7 31.1312 23.7 31.1312 23.7C31.1311 23.7 31.1311 23.7 31.131 23.7C31.131 23.7 31.1309 23.7 31.1309 23.7C31.1308 23.7 31.1308 23.7 31.1307 23.7C31.1307 23.7 31.1306 23.7 31.1306 23.7C31.1305 23.7 31.1305 23.7 31.1304 23.7C31.1304 23.7 31.1303 23.7 31.1303 23.7C31.1302 23.7 31.1302 23.7 31.1301 23.7C31.1301 23.7 31.1301 23.7 31.13 23.7C31.13 23.7 31.1299 23.7 31.1299 23.7C31.1298 23.7 31.1298 23.7 31.1297 23.7C31.1297 23.7 31.1296 23.7 31.1296 23.7C31.1295 23.7 31.1295 23.7 31.1294 23.7C31.1294 23.7 31.1293 23.7 31.1293 23.7C31.1292 23.7 31.1292 23.7 31.1291 23.7C31.1291 23.7 31.129 23.7 31.129 23.7C31.1289 23.7 31.1289 23.7 31.1288 23.7C31.1288 23.7 31.1287 23.7 31.1287 23.7C31.1286 23.7 31.1286 23.7 31.1285 23.7C31.1285 23.7 31.1284 23.7 31.1284 23.7C31.1284 23.7 31.1283 23.7 31.1283 23.7C31.1282 23.7 31.1282 23.7 31.1281 23.7C31.1281 23.7 31.128 23.7 31.128 23.7C31.1279 23.7 31.1279 23.7 31.1278 23.7C31.1278 23.7 31.1277 23.7 31.1277 23.7C31.1276 23.7 31.1276 23.7 31.1275 23.7C31.1275 23.7 31.1274 23.7 31.1274 23.7C31.1273 23.7 31.1273 23.7 31.1272 23.7C31.1272 23.7 31.1271 23.7 31.1271 23.7C31.127 23.7 31.127 23.7 31.1269 23.7C31.1269 23.7 31.1268 23.7 31.1268 23.7C31.1268 23.7 31.1267 23.7 31.1267 23.7C31.1266 23.7 31.1266 23.7 31.1265 23.7C31.1265 23.7 31.1264 23.7 31.1264 23.7C31.1263 23.7 31.1263 23.7 31.1262 23.7C31.1262 23.7 31.1261 23.7 31.1261 23.7C31.126 23.7 31.126 23.7 31.1259 23.7C31.1259 23.7 31.1258 23.7 31.1258 23.7C31.1257 23.7 31.1257 23.7 31.1256 23.7C31.1256 23.7 31.1255 23.7 31.1255 23.7C31.1254 23.7 31.1254 23.7 31.1254 23.7C31.1253 23.7 31.1253 23.7 31.1252 23.7C31.1252 23.7 31.1251 23.7 31.1251 23.7C31.125 23.7 31.125 23.7 31.1249 23.7C31.1249 23.7 31.1248 23.7 31.1248 23.7C31.1247 23.7 31.1247 23.7 31.1246 23.7C31.1246 23.7 31.1245 23.7 31.1245 23.7C31.1244 23.7 31.1244 23.7 31.1243 23.7C31.1243 23.7 31.1242 23.7 31.1242 23.7C31.1241 23.7 31.1241 23.7 31.1241 23.7C31.124 23.7 31.124 23.7 31.1239 23.7C31.1239 23.7 31.1238 23.7 31.1238 23.7C31.1237 23.7 31.1237 23.7 31.1236 23.7C31.1236 23.7 31.1235 23.7 31.1235 23.7C31.1234 23.7 31.1234 23.7 31.1233 23.7C31.1233 23.7 31.1232 23.7 31.1232 23.7C31.1231 23.7 31.1231 23.7 31.123 23.7C31.123 23.7 31.123 23.7 31.1229 23.7C31.1229 23.7 31.1228 23.7 31.1228 23.7C31.1227 23.7 31.1227 23.7 31.1226 23.7C31.1226 23.7 31.1225 23.7 31.1225 23.7C31.1224 23.7 31.1224 23.7 31.1223 23.7C31.1223 23.7 31.1222 23.7 31.1222 23.7C31.1221 23.7 31.1221 23.7 31.122 23.7C31.122 23.7 31.122 23.7 31.1219 23.7C31.1219 23.7 31.1218 23.7 31.1218 23.7C31.1217 23.7 31.1217 23.7 31.1216 23.7C31.1216 23.7 31.1215 23.7 31.1215 23.7C31.1214 23.7 31.1214 23.7 31.1213 23.7C31.1213 23.7 31.1212 23.7 31.1212 23.7C31.1211 23.7 31.1211 23.7 31.121 23.7C31.121 23.7 31.121 23.7 31.1209 23.7C31.1209 23.7 31.1208 23.7 31.1208 23.7C31.1207 23.7 31.1207 23.7 31.1206 23.7C31.1206 23.7 31.1205 23.7 31.1205 23.7C31.1204 23.7 31.1204 23.7 31.1203 23.7C31.1203 23.7 31.1202 23.7 31.1202 23.7C31.1201 23.7 31.1201 23.7 31.1201 23.7C31.12 23.7 31.12 23.7 31.1199 23.7C31.1199 23.7 31.1198 23.7 31.1198 23.7C31.1197 23.7 31.1197 23.7 31.1196 23.7C31.1196 23.7 31.1195 23.7 31.1195 23.7C31.1194 23.7 31.1194 23.7 31.1193 23.7C31.1193 23.7 31.1193 23.7 31.1192 23.7C31.1192 23.7 31.1191 23.7 31.1191 23.7C31.119 23.7 31.119 23.7 31.1189 23.7C31.1189 23.7 31.1188 23.7 31.1188 23.7C31.1187 23.7 31.1187 23.7 31.1186 23.7C31.1186 23.7 31.1185 23.7 31.1185 23.7C31.1185 23.7 31.1184 23.7 31.1184 23.7C31.1183 23.7 31.1183 23.7 31.1182 23.7C31.1182 23.7 31.1181 23.7 31.1181 23.7C31.118 23.7 31.118 23.7 31.1179 23.7C31.1179 23.7 31.1178 23.7 31.1178 23.7C31.1178 23.7 31.1177 23.7 31.1177 23.7C31.1176 23.7 31.1176 23.7 31.1175 23.7C31.1175 23.7 31.1174 23.7 31.1174 23.7C31.1173 23.7 31.1173 23.7 31.1172 23.7C31.1172 23.7 31.1171 23.7 31.1171 23.7C31.1171 23.7 31.117 23.7 31.117 23.7C31.1169 23.7 31.1169 23.7 31.1168 23.7C31.1168 23.7 31.1167 23.7 31.1167 23.7C31.1166 23.7 31.1166 23.7 31.1165 23.7C31.1165 23.7 31.1164 23.7 31.1164 23.7C31.1164 23.7 31.1163 23.7 31.1163 23.7C31.1162 23.7 31.1162 23.7 31.1161 23.7C31.1161 23.7 31.116 23.7 31.116 23.7C31.1159 23.7 31.1159 23.7 31.1158 23.7C31.1158 23.7 31.1158 23.7 31.1157 23.7C31.1157 23.7 31.1156 23.7 31.1156 23.7C31.1155 23.7 31.1155 23.7 31.1154 23.7C31.1154 23.7 31.1153 23.7 31.1153 23.7C31.1152 23.7 31.1152 23.7 31.1152 23.7C31.1151 23.7 31.1151 23.7 31.115 23.7C31.115 23.7 31.1149 23.7 31.1149 23.7C31.1148 23.7 31.1148 23.7 31.1147 23.7C31.1147 23.7 31.1146 23.7 31.1146 23.7C31.1146 23.7 31.1145 23.7 31.1145 23.7C31.1144 23.7 31.1144 23.7 31.1143 23.7C31.1143 23.7 31.1142 23.7 31.1142 23.7C31.1141 23.7 31.1141 23.7 31.1141 23.7C31.114 23.7 31.114 23.7 31.1139 23.7C31.1139 23.7 31.1138 23.7 31.1138 23.7C31.1137 23.7 31.1137 23.7 31.1136 23.7C31.1136 23.7 31.1136 23.7 31.1135 23.7C31.1135 23.7 31.1134 23.7 31.1134 23.7C31.1133 23.7 31.1133 23.7 31.1132 23.7C31.1132 23.7 31.1131 23.7 31.1131 23.7C31.1131 23.7 31.113 23.7 31.113 23.7C31.1129 23.7 31.1129 23.7 31.1128 23.7C31.1128 23.7 31.1127 23.7 31.1127 23.7C31.1126 23.7 31.1126 23.7 31.1126 23.7C31.1125 23.7 31.1125 23.7 31.1124 23.7C31.1124 23.7 31.1123 23.7 31.1123 23.7C31.1122 23.7 31.1122 23.7 31.1122 23.7C31.1121 23.7 31.1121 23.7 31.112 23.7C31.112 23.7 31.1119 23.7 31.1119 23.7C31.1118 23.7 31.1118 23.7 31.1117 23.7C31.1117 23.7 31.1117 23.7 31.1116 23.7C31.1116 23.7 31.1115 23.7 31.1115 23.7C31.1114 23.7 31.1114 23.7 31.1113 23.7C31.1113 23.7 31.1113 23.7 31.1112 23.7C31.1112 23.7 31.1111 23.7 31.1111 23.7C31.111 23.7 31.111 23.7 31.1109 23.7C31.1109 23.7 31.1109 23.7 31.1108 23.7C31.1108 23.7 31.1107 23.7 31.1107 23.7C31.1106 23.7 31.1106 23.7 31.1105 23.7C31.1105 23.7 31.1105 23.7 31.1104 23.7C31.1104 23.7 31.1103 23.7 31.1103 23.7C31.1102 23.7 31.1102 23.7 31.1101 23.7C31.1101 23.7 31.1101 23.7 31.11 23.7C31.11 23.7 31.1099 23.7 31.1099 23.7C31.1098 23.7 31.1098 23.7 31.1097 23.7C31.1097 23.7 31.1097 23.7 31.1096 23.7C31.1096 23.7 31.1095 23.7 31.1095 23.7C31.1094 23.7 31.1094 23.7 31.1093 23.7C31.1093 23.7 31.1093 23.7 31.1092 23.7C31.1092 23.7 31.1091 23.7 31.1091 23.7C31.109 23.7 31.109 23.7 31.109 23.7C31.1089 23.7 31.1089 23.7 31.1088 23.7C31.1088 23.7 31.1087 23.7 31.1087 23.7C31.1086 23.7 31.1086 23.7 31.1086 23.7C31.1085 23.7 31.1085 23.7 31.1084 23.7C31.1084 23.7 31.1083 23.7 31.1083 23.7C31.1083 23.7 31.1082 23.7 31.1082 23.7C31.1081 23.7 31.1081 23.7 31.108 23.7C31.108 23.7 31.108 23.7 31.1079 23.7C31.1079 23.7 31.1078 23.7 31.1078 23.7C31.1077 23.7 31.1077 23.7 31.1076 23.7C31.1076 23.7 31.1076 23.7 31.1075 23.7C31.1075 23.7 31.1074 23.7 31.1074 23.7C31.1073 23.7 31.1073 23.7 31.1073 23.7C31.1072 23.7 31.1072 23.7 31.1071 23.7C31.1071 23.7 31.107 23.7 31.107 23.7C31.107 23.7 31.1069 23.7 31.1069 23.7C31.1068 23.7 31.1068 23.7 31.1067 23.7C31.1067 23.7 31.1067 23.7 31.1066 23.7C31.1066 23.7 31.1065 23.7 31.1065 23.7C31.1064 23.7 31.1064 23.7 31.1064 23.7C31.1063 23.7 31.1063 23.7 31.1062 23.7C31.1062 23.7 31.1061 23.7 31.1061 23.7C31.1061 23.7 31.106 23.7 31.106 23.7C31.1059 23.7 31.1059 23.7 31.1058 23.7C31.1058 23.7 31.1058 23.7 31.1057 23.7C31.1057 23.7 31.1056 23.7 31.1056 23.7C31.1056 23.7 31.1055 23.7 31.1055 23.7C31.1054 23.7 31.1054 23.7 31.1053 23.7C31.1053 23.7 31.1053 23.7 31.1052 23.7C31.1052 23.7 31.1051 23.7 31.1051 23.7C31.105 23.7 31.105 23.7 31.105 23.7C31.1049 23.7 31.1049 23.7 31.1048 23.7C31.1048 23.7 31.1048 23.7 31.1047 23.7C31.1047 23.7 31.1046 23.7 31.1046 23.7C31.1045 23.7 31.1045 23.7 31.1045 23.7C31.1044 23.7 31.1044 23.7 31.1043 23.7C31.1043 23.7 31.1043 23.7 31.1042 23.7C31.1042 23.7 31.1041 23.7 31.1041 23.7C31.104 23.7 31.104 23.7 31.104 23.7C31.1039 23.7 31.1039 23.7 31.1038 23.7C31.1038 23.7 31.1038 23.7 31.1037 23.7C31.1037 23.7 31.1036 23.7 31.1036 23.7C31.1036 23.7 31.1035 23.7 31.1035 23.7C31.1034 23.7 31.1034 23.7 31.1033 23.7C31.1033 23.7 31.1033 23.7 31.1032 23.7C31.1032 23.7 31.1031 23.7 31.1031 23.7C31.1031 23.7 31.103 23.7 31.103 23.7C31.1029 23.7 31.1029 23.7 31.1029 23.7C31.1028 23.7 31.1028 23.7 31.1027 23.7C31.1027 23.7 31.1027 23.7 31.1026 23.7C31.1026 23.7 31.1025 23.7 31.1025 23.7C31.1024 23.7 31.1024 23.7 31.1024 23.7C31.1023 23.7 31.1023 23.7 31.1022 23.7C31.1022 23.7 31.1022 23.7 31.1021 23.7C31.1021 23.7 31.102 23.7 31.102 23.7C31.102 23.7 31.1019 23.7 31.1019 23.7C31.1018 23.7 31.1018 23.7 31.1018 23.7C31.1017 23.7 31.1017 23.7 31.1016 23.7C31.1016 23.7 31.1016 23.7 31.1015 23.7C31.1015 23.7 31.1014 23.7 31.1014 23.7C31.1014 23.7 31.1013 23.7 31.1013 23.7C31.1012 23.7 31.1012 23.7 31.1012 23.7C31.1011 23.7 31.1011 23.7 31.101 23.7C31.101 23.7 31.101 23.7 31.1009 23.7C31.1009 23.7 31.1008 23.7 31.1008 23.7C31.1008 23.7 31.1007 23.7 31.1007 23.7C31.1006 23.7 31.1006 23.7 31.1006 23.7C31.1005 23.7 31.1005 23.7 31.1004 23.7C31.1004 23.7 31.1004 23.7 31.1003 23.7C31.1003 23.7 31.1003 23.7 31.1002 23.7C31.1002 23.7 31.1001 23.7 31.1001 23.7C31.1001 23.7 31.1 23.7 31.1 23.7V25.4C31.1 25.4 31.1001 25.4 31.1001 25.4C31.1001 25.4 31.1002 25.4 31.1002 25.4C31.1003 25.4 31.1003 25.4 31.1003 25.4C31.1004 25.4 31.1004 25.4 31.1004 25.4C31.1005 25.4 31.1005 25.4 31.1006 25.4C31.1006 25.4 31.1006 25.4 31.1007 25.4C31.1007 25.4 31.1008 25.4 31.1008 25.4C31.1008 25.4 31.1009 25.4 31.1009 25.4C31.101 25.4 31.101 25.4 31.101 25.4C31.1011 25.4 31.1011 25.4 31.1012 25.4C31.1012 25.4 31.1012 25.4 31.1013 25.4C31.1013 25.4 31.1014 25.4 31.1014 25.4C31.1014 25.4 31.1015 25.4 31.1015 25.4C31.1016 25.4 31.1016 25.4 31.1016 25.4C31.1017 25.4 31.1017 25.4 31.1018 25.4C31.1018 25.4 31.1018 25.4 31.1019 25.4C31.1019 25.4 31.102 25.4 31.102 25.4C31.102 25.4 31.1021 25.4 31.1021 25.4C31.1022 25.4 31.1022 25.4 31.1022 25.4C31.1023 25.4 31.1023 25.4 31.1024 25.4C31.1024 25.4 31.1024 25.4 31.1025 25.4C31.1025 25.4 31.1026 25.4 31.1026 25.4C31.1027 25.4 31.1027 25.4 31.1027 25.4C31.1028 25.4 31.1028 25.4 31.1029 25.4C31.1029 25.4 31.1029 25.4 31.103 25.4C31.103 25.4 31.1031 25.4 31.1031 25.4C31.1031 25.4 31.1032 25.4 31.1032 25.4C31.1033 25.4 31.1033 25.4 31.1033 25.4C31.1034 25.4 31.1034 25.4 31.1035 25.4C31.1035 25.4 31.1036 25.4 31.1036 25.4C31.1036 25.4 31.1037 25.4 31.1037 25.4C31.1038 25.4 31.1038 25.4 31.1038 25.4C31.1039 25.4 31.1039 25.4 31.104 25.4C31.104 25.4 31.104 25.4 31.1041 25.4C31.1041 25.4 31.1042 25.4 31.1042 25.4C31.1043 25.4 31.1043 25.4 31.1043 25.4C31.1044 25.4 31.1044 25.4 31.1045 25.4C31.1045 25.4 31.1045 25.4 31.1046 25.4C31.1046 25.4 31.1047 25.4 31.1047 25.4C31.1048 25.4 31.1048 25.4 31.1048 25.4C31.1049 25.4 31.1049 25.4 31.105 25.4C31.105 25.4 31.105 25.4 31.1051 25.4C31.1051 25.4 31.1052 25.4 31.1052 25.4C31.1053 25.4 31.1053 25.4 31.1053 25.4C31.1054 25.4 31.1054 25.4 31.1055 25.4C31.1055 25.4 31.1056 25.4 31.1056 25.4C31.1056 25.4 31.1057 25.4 31.1057 25.4C31.1058 25.4 31.1058 25.4 31.1058 25.4C31.1059 25.4 31.1059 25.4 31.106 25.4C31.106 25.4 31.1061 25.4 31.1061 25.4C31.1061 25.4 31.1062 25.4 31.1062 25.4C31.1063 25.4 31.1063 25.4 31.1064 25.4C31.1064 25.4 31.1064 25.4 31.1065 25.4C31.1065 25.4 31.1066 25.4 31.1066 25.4C31.1067 25.4 31.1067 25.4 31.1067 25.4C31.1068 25.4 31.1068 25.4 31.1069 25.4C31.1069 25.4 31.107 25.4 31.107 25.4C31.107 25.4 31.1071 25.4 31.1071 25.4C31.1072 25.4 31.1072 25.4 31.1073 25.4C31.1073 25.4 31.1073 25.4 31.1074 25.4C31.1074 25.4 31.1075 25.4 31.1075 25.4C31.1076 25.4 31.1076 25.4 31.1076 25.4C31.1077 25.4 31.1077 25.4 31.1078 25.4C31.1078 25.4 31.1079 25.4 31.1079 25.4C31.108 25.4 31.108 25.4 31.108 25.4C31.1081 25.4 31.1081 25.4 31.1082 25.4C31.1082 25.4 31.1083 25.4 31.1083 25.4C31.1083 25.4 31.1084 25.4 31.1084 25.4C31.1085 25.4 31.1085 25.4 31.1086 25.4C31.1086 25.4 31.1086 25.4 31.1087 25.4C31.1087 25.4 31.1088 25.4 31.1088 25.4C31.1089 25.4 31.1089 25.4 31.109 25.4C31.109 25.4 31.109 25.4 31.1091 25.4C31.1091 25.4 31.1092 25.4 31.1092 25.4C31.1093 25.4 31.1093 25.4 31.1093 25.4C31.1094 25.4 31.1094 25.4 31.1095 25.4C31.1095 25.4 31.1096 25.4 31.1096 25.4C31.1097 25.4 31.1097 25.4 31.1097 25.4C31.1098 25.4 31.1098 25.4 31.1099 25.4C31.1099 25.4 31.11 25.4 31.11 25.4C31.1101 25.4 31.1101 25.4 31.1101 25.4C31.1102 25.4 31.1102 25.4 31.1103 25.4C31.1103 25.4 31.1104 25.4 31.1104 25.4C31.1105 25.4 31.1105 25.4 31.1105 25.4C31.1106 25.4 31.1106 25.4 31.1107 25.4C31.1107 25.4 31.1108 25.4 31.1108 25.4C31.1109 25.4 31.1109 25.4 31.1109 25.4C31.111 25.4 31.111 25.4 31.1111 25.4C31.1111 25.4 31.1112 25.4 31.1112 25.4C31.1113 25.4 31.1113 25.4 31.1113 25.4C31.1114 25.4 31.1114 25.4 31.1115 25.4C31.1115 25.4 31.1116 25.4 31.1116 25.4C31.1117 25.4 31.1117 25.4 31.1117 25.4C31.1118 25.4 31.1118 25.4 31.1119 25.4C31.1119 25.4 31.112 25.4 31.112 25.4C31.1121 25.4 31.1121 25.4 31.1122 25.4C31.1122 25.4 31.1122 25.4 31.1123 25.4C31.1123 25.4 31.1124 25.4 31.1124 25.4C31.1125 25.4 31.1125 25.4 31.1126 25.4C31.1126 25.4 31.1126 25.4 31.1127 25.4C31.1127 25.4 31.1128 25.4 31.1128 25.4C31.1129 25.4 31.1129 25.4 31.113 25.4C31.113 25.4 31.1131 25.4 31.1131 25.4C31.1131 25.4 31.1132 25.4 31.1132 25.4C31.1133 25.4 31.1133 25.4 31.1134 25.4C31.1134 25.4 31.1135 25.4 31.1135 25.4C31.1136 25.4 31.1136 25.4 31.1136 25.4C31.1137 25.4 31.1137 25.4 31.1138 25.4C31.1138 25.4 31.1139 25.4 31.1139 25.4C31.114 25.4 31.114 25.4 31.1141 25.4C31.1141 25.4 31.1141 25.4 31.1142 25.4C31.1142 25.4 31.1143 25.4 31.1143 25.4C31.1144 25.4 31.1144 25.4 31.1145 25.4C31.1145 25.4 31.1146 25.4 31.1146 25.4C31.1146 25.4 31.1147 25.4 31.1147 25.4C31.1148 25.4 31.1148 25.4 31.1149 25.4C31.1149 25.4 31.115 25.4 31.115 25.4C31.1151 25.4 31.1151 25.4 31.1152 25.4C31.1152 25.4 31.1152 25.4 31.1153 25.4C31.1153 25.4 31.1154 25.4 31.1154 25.4C31.1155 25.4 31.1155 25.4 31.1156 25.4C31.1156 25.4 31.1157 25.4 31.1157 25.4C31.1158 25.4 31.1158 25.4 31.1158 25.4C31.1159 25.4 31.1159 25.4 31.116 25.4C31.116 25.4 31.1161 25.4 31.1161 25.4C31.1162 25.4 31.1162 25.4 31.1163 25.4C31.1163 25.4 31.1164 25.4 31.1164 25.4C31.1164 25.4 31.1165 25.4 31.1165 25.4C31.1166 25.4 31.1166 25.4 31.1167 25.4C31.1167 25.4 31.1168 25.4 31.1168 25.4C31.1169 25.4 31.1169 25.4 31.117 25.4C31.117 25.4 31.1171 25.4 31.1171 25.4C31.1171 25.4 31.1172 25.4 31.1172 25.4C31.1173 25.4 31.1173 25.4 31.1174 25.4C31.1174 25.4 31.1175 25.4 31.1175 25.4C31.1176 25.4 31.1176 25.4 31.1177 25.4C31.1177 25.4 31.1178 25.4 31.1178 25.4C31.1178 25.4 31.1179 25.4 31.1179 25.4C31.118 25.4 31.118 25.4 31.1181 25.4C31.1181 25.4 31.1182 25.4 31.1182 25.4C31.1183 25.4 31.1183 25.4 31.1184 25.4C31.1184 25.4 31.1185 25.4 31.1185 25.4C31.1185 25.4 31.1186 25.4 31.1186 25.4C31.1187 25.4 31.1187 25.4 31.1188 25.4C31.1188 25.4 31.1189 25.4 31.1189 25.4C31.119 25.4 31.119 25.4 31.1191 25.4C31.1191 25.4 31.1192 25.4 31.1192 25.4C31.1193 25.4 31.1193 25.4 31.1193 25.4C31.1194 25.4 31.1194 25.4 31.1195 25.4C31.1195 25.4 31.1196 25.4 31.1196 25.4C31.1197 25.4 31.1197 25.4 31.1198 25.4C31.1198 25.4 31.1199 25.4 31.1199 25.4C31.12 25.4 31.12 25.4 31.1201 25.4C31.1201 25.4 31.1201 25.4 31.1202 25.4C31.1202 25.4 31.1203 25.4 31.1203 25.4C31.1204 25.4 31.1204 25.4 31.1205 25.4C31.1205 25.4 31.1206 25.4 31.1206 25.4C31.1207 25.4 31.1207 25.4 31.1208 25.4C31.1208 25.4 31.1209 25.4 31.1209 25.4C31.121 25.4 31.121 25.4 31.121 25.4C31.1211 25.4 31.1211 25.4 31.1212 25.4C31.1212 25.4 31.1213 25.4 31.1213 25.4C31.1214 25.4 31.1214 25.4 31.1215 25.4C31.1215 25.4 31.1216 25.4 31.1216 25.4C31.1217 25.4 31.1217 25.4 31.1218 25.4C31.1218 25.4 31.1219 25.4 31.1219 25.4C31.122 25.4 31.122 25.4 31.122 25.4C31.1221 25.4 31.1221 25.4 31.1222 25.4C31.1222 25.4 31.1223 25.4 31.1223 25.4C31.1224 25.4 31.1224 25.4 31.1225 25.4C31.1225 25.4 31.1226 25.4 31.1226 25.4C31.1227 25.4 31.1227 25.4 31.1228 25.4C31.1228 25.4 31.1229 25.4 31.1229 25.4C31.123 25.4 31.123 25.4 31.123 25.4C31.1231 25.4 31.1231 25.4 31.1232 25.4C31.1232 25.4 31.1233 25.4 31.1233 25.4C31.1234 25.4 31.1234 25.4 31.1235 25.4C31.1235 25.4 31.1236 25.4 31.1236 25.4C31.1237 25.4 31.1237 25.4 31.1238 25.4C31.1238 25.4 31.1239 25.4 31.1239 25.4C31.124 25.4 31.124 25.4 31.1241 25.4C31.1241 25.4 31.1241 25.4 31.1242 25.4C31.1242 25.4 31.1243 25.4 31.1243 25.4C31.1244 25.4 31.1244 25.4 31.1245 25.4C31.1245 25.4 31.1246 25.4 31.1246 25.4C31.1247 25.4 31.1247 25.4 31.1248 25.4C31.1248 25.4 31.1249 25.4 31.1249 25.4C31.125 25.4 31.125 25.4 31.1251 25.4C31.1251 25.4 31.1252 25.4 31.1252 25.4C31.1253 25.4 31.1253 25.4 31.1254 25.4C31.1254 25.4 31.1254 25.4 31.1255 25.4C31.1255 25.4 31.1256 25.4 31.1256 25.4C31.1257 25.4 31.1257 25.4 31.1258 25.4C31.1258 25.4 31.1259 25.4 31.1259 25.4C31.126 25.4 31.126 25.4 31.1261 25.4C31.1261 25.4 31.1262 25.4 31.1262 25.4C31.1263 25.4 31.1263 25.4 31.1264 25.4C31.1264 25.4 31.1265 25.4 31.1265 25.4C31.1266 25.4 31.1266 25.4 31.1267 25.4C31.1267 25.4 31.1268 25.4 31.1268 25.4C31.1268 25.4 31.1269 25.4 31.1269 25.4C31.127 25.4 31.127 25.4 31.1271 25.4C31.1271 25.4 31.1272 25.4 31.1272 25.4C31.1273 25.4 31.1273 25.4 31.1274 25.4C31.1274 25.4 31.1275 25.4 31.1275 25.4C31.1276 25.4 31.1276 25.4 31.1277 25.4C31.1277 25.4 31.1278 25.4 31.1278 25.4C31.1279 25.4 31.1279 25.4 31.128 25.4C31.128 25.4 31.1281 25.4 31.1281 25.4C31.1282 25.4 31.1282 25.4 31.1283 25.4C31.1283 25.4 31.1284 25.4 31.1284 25.4C31.1284 25.4 31.1285 25.4 31.1285 25.4C31.1286 25.4 31.1286 25.4 31.1287 25.4C31.1287 25.4 31.1288 25.4 31.1288 25.4C31.1289 25.4 31.1289 25.4 31.129 25.4C31.129 25.4 31.1291 25.4 31.1291 25.4C31.1292 25.4 31.1292 25.4 31.1293 25.4C31.1293 25.4 31.1294 25.4 31.1294 25.4C31.1295 25.4 31.1295 25.4 31.1296 25.4C31.1296 25.4 31.1297 25.4 31.1297 25.4C31.1298 25.4 31.1298 25.4 31.1299 25.4C31.1299 25.4 31.13 25.4 31.13 25.4C31.1301 25.4 31.1301 25.4 31.1301 25.4C31.1302 25.4 31.1302 25.4 31.1303 25.4C31.1303 25.4 31.1304 25.4 31.1304 25.4C31.1305 25.4 31.1305 25.4 31.1306 25.4C31.1306 25.4 31.1307 25.4 31.1307 25.4C31.1308 25.4 31.1308 25.4 31.1309 25.4C31.1309 25.4 31.131 25.4 31.131 25.4C31.1311 25.4 31.1311 25.4 31.1312 25.4C31.1312 25.4 31.1313 25.4 31.1313 25.4C31.1314 25.4 31.1314 25.4 31.1315 25.4C31.1315 25.4 31.1316 25.4 31.1316 25.4C31.1317 25.4 31.1317 25.4 31.1318 25.4C31.1318 25.4 31.1319 25.4 31.1319 25.4C31.132 25.4 31.132 25.4 31.132 25.4C31.1321 25.4 31.1321 25.4 31.1322 25.4C31.1322 25.4 31.1323 25.4 31.1323 25.4C31.1324 25.4 31.1324 25.4 31.1325 25.4C31.1325 25.4 31.1326 25.4 31.1326 25.4C31.1327 25.4 31.1327 25.4 31.1328 25.4C31.1328 25.4 31.1329 25.4 31.1329 25.4C31.133 25.4 31.133 25.4 31.1331 25.4C31.1331 25.4 31.1332 25.4 31.1332 25.4C31.1333 25.4 31.1333 25.4 31.1334 25.4C31.1334 25.4 31.1335 25.4 31.1335 25.4C31.1336 25.4 31.1336 25.4 31.1337 25.4C31.1337 25.4 31.1338 25.4 31.1338 25.4C31.1339 25.4 31.1339 25.4 31.134 25.4C31.134 25.4 31.134 25.4 31.1341 25.4C31.1341 25.4 31.1342 25.4 31.1342 25.4C31.1343 25.4 31.1343 25.4 31.1344 25.4C31.1344 25.4 31.1345 25.4 31.1345 25.4C31.1346 25.4 31.1346 25.4 31.1347 25.4C31.1347 25.4 31.1348 25.4 31.1348 25.4C31.1349 25.4 31.1349 25.4 31.135 25.4C31.135 25.4 31.1351 25.4 31.1351 25.4C31.1352 25.4 31.1352 25.4 31.1353 25.4C31.1353 25.4 31.1354 25.4 31.1354 25.4C31.1355 25.4 31.1355 25.4 31.1356 25.4C31.1356 25.4 31.1357 25.4 31.1357 25.4C31.1358 25.4 31.1358 25.4 31.1359 25.4C31.1359 25.4 31.136 25.4 31.136 25.4C31.1361 25.4 31.1361 25.4 31.1361 25.4C31.1362 25.4 31.1362 25.4 31.1363 25.4C31.1363 25.4 31.1364 25.4 31.1364 25.4C31.1365 25.4 31.1365 25.4 31.1366 25.4C31.1366 25.4 31.1367 25.4 31.1367 25.4C31.1368 25.4 31.1368 25.4 31.1369 25.4C31.1369 25.4 31.137 25.4 31.137 25.4C31.1371 25.4 31.1371 25.4 31.1372 25.4C31.1372 25.4 31.1373 25.4 31.1373 25.4C31.1374 25.4 31.1374 25.4 31.1375 25.4C31.1375 25.4 31.1376 25.4 31.1376 25.4C31.1377 25.4 31.1377 25.4 31.1378 25.4C31.1378 25.4 31.1379 25.4 31.1379 25.4C31.138 25.4 31.138 25.4 31.1381 25.4C31.1381 25.4 31.1381 25.4 31.1382 25.4C31.1382 25.4 31.1383 25.4 31.1383 25.4C31.1384 25.4 31.1384 25.4 31.1385 25.4C31.1385 25.4 31.1386 25.4 31.1386 25.4C31.1387 25.4 31.1387 25.4 31.1388 25.4C31.1388 25.4 31.1389 25.4 31.1389 25.4C31.139 25.4 31.139 25.4 31.1391 25.4C31.1391 25.4 31.1392 25.4 31.1392 25.4C31.1393 25.4 31.1393 25.4 31.1394 25.4C31.1394 25.4 31.1395 25.4 31.1395 25.4C31.1396 25.4 31.1396 25.4 31.1397 25.4C31.1397 25.4 31.1398 25.4 31.1398 25.4C31.1399 25.4 31.1399 25.4 31.14 25.4C31.14 25.4 31.14 25.4 31.1401 25.4C31.1401 25.4 31.1402 25.4 31.1402 25.4C31.1403 25.4 31.1403 25.4 31.1404 25.4C31.1404 25.4 31.1405 25.4 31.1405 25.4C31.1406 25.4 31.1406 25.4 31.1407 25.4C31.1407 25.4 31.1408 25.4 31.1408 25.4C31.1409 25.4 31.1409 25.4 31.141 25.4C31.141 25.4 31.1411 25.4 31.1411 25.4C31.1412 25.4 31.1412 25.4 31.1413 25.4C31.1413 25.4 31.1414 25.4 31.1414 25.4C31.1415 25.4 31.1415 25.4 31.1416 25.4C31.1416 25.4 31.1417 25.4 31.1417 25.4C31.1417 25.4 31.1418 25.4 31.1418 25.4C31.1419 25.4 31.1419 25.4 31.142 25.4C31.142 25.4 31.1421 25.4 31.1421 25.4C31.1422 25.4 31.1422 25.4 31.1423 25.4C31.1423 25.4 31.1424 25.4 31.1424 25.4C31.1425 25.4 31.1425 25.4 31.1426 25.4C31.1426 25.4 31.1427 25.4 31.1427 25.4C31.1428 25.4 31.1428 25.4 31.1429 25.4C31.1429 25.4 31.143 25.4 31.143 25.4C31.1431 25.4 31.1431 25.4 31.1432 25.4C31.1432 25.4 31.1433 25.4 31.1433 25.4C31.1433 25.4 31.1434 25.4 31.1434 25.4C31.1435 25.4 31.1435 25.4 31.1436 25.4C31.1436 25.4 31.1437 25.4 31.1437 25.4C31.1438 25.4 31.1438 25.4 31.1439 25.4C31.1439 25.4 31.144 25.4 31.144 25.4C31.1441 25.4 31.1441 25.4 31.1442 25.4C31.1442 25.4 31.1443 25.4 31.1443 25.4C31.1444 25.4 31.1444 25.4 31.1445 25.4C31.1445 25.4 31.1446 25.4 31.1446 25.4C31.1447 25.4 31.1447 25.4 31.1447 25.4C31.1448 25.4 31.1448 25.4 31.1449 25.4C31.1449 25.4 31.145 25.4 31.145 25.4C31.1451 25.4 31.1451 25.4 31.1452 25.4C31.1452 25.4 31.1453 25.4 31.1453 25.4C31.1454 25.4 31.1454 25.4 31.1455 25.4C31.1455 25.4 31.1456 25.4 31.1456 25.4C31.1457 25.4 31.1457 25.4 31.1458 25.4C31.1458 25.4 31.1459 25.4 31.1459 25.4C31.1459 25.4 31.146 25.4 31.146 25.4C31.1461 25.4 31.1461 25.4 31.1462 25.4C31.1462 25.4 31.1463 25.4 31.1463 25.4C31.1464 25.4 31.1464 25.4 31.1465 25.4C31.1465 25.4 31.1466 25.4 31.1466 25.4C31.1467 25.4 31.1467 25.4 31.1468 25.4C31.1468 25.4 31.1469 25.4 31.1469 25.4C31.147 25.4 31.147 25.4 31.1471 25.4C31.1471 25.4 31.1471 25.4 31.1472 25.4C31.1472 25.4 31.1473 25.4 31.1473 25.4C31.1474 25.4 31.1474 25.4 31.1475 25.4C31.1475 25.4 31.1476 25.4 31.1476 25.4C31.1477 25.4 31.1477 25.4 31.1478 25.4C31.1478 25.4 31.1479 25.4 31.1479 25.4C31.148 25.4 31.148 25.4 31.1481 25.4C31.1481 25.4 31.1481 25.4 31.1482 25.4C31.1482 25.4 31.1483 25.4 31.1483 25.4C31.1484 25.4 31.1484 25.4 31.1485 25.4C31.1485 25.4 31.1486 25.4 31.1486 25.4C31.1487 25.4 31.1487 25.4 31.1488 25.4C31.1488 25.4 31.1489 25.4 31.1489 25.4C31.149 25.4 31.149 25.4 31.1491 25.4C31.1491 25.4 31.1491 25.4 31.1492 25.4C31.1492 25.4 31.1493 25.4 31.1493 25.4C31.1494 25.4 31.1494 25.4 31.1495 25.4C31.1495 25.4 31.1496 25.4 31.1496 25.4C31.1497 25.4 31.1497 25.4 31.1498 25.4C31.1498 25.4 31.1499 25.4 31.1499 25.4C31.1499 25.4 31.15 25.4 31.15 25.4C31.1501 25.4 31.1501 25.4 31.1502 25.4C31.1502 25.4 31.1503 25.4 31.1503 25.4C31.1504 25.4 31.1504 25.4 31.1505 25.4C31.1505 25.4 31.1506 25.4 31.1506 25.4C31.1507 25.4 31.1507 25.4 31.1508 25.4C31.1508 25.4 31.1508 25.4 31.1509 25.4C31.1509 25.4 31.151 25.4 31.151 25.4C31.1511 25.4 31.1511 25.4 31.1512 25.4C31.1512 25.4 31.1513 25.4 31.1513 25.4C31.1514 25.4 31.1514 25.4 31.1515 25.4C31.1515 25.4 31.1515 25.4 31.1516 25.4C31.1516 25.4 31.1517 25.4 31.1517 25.4C31.1518 25.4 31.1518 25.4 31.1519 25.4C31.1519 25.4 31.152 25.4 31.152 25.4C31.1521 25.4 31.1521 25.4 31.1522 25.4C31.1522 25.4 31.1523 25.4 31.1523 25.4C31.1523 25.4 31.1524 25.4 31.1524 25.4C31.1525 25.4 31.1525 25.4 31.1526 25.4C31.1526 25.4 31.1527 25.4 31.1527 25.4C31.1528 25.4 31.1528 25.4 31.1529 25.4C31.1529 25.4 31.153 25.4 31.153 25.4C31.153 25.4 31.1531 25.4 31.1531 25.4C31.1532 25.4 31.1532 25.4 31.1533 25.4C31.1533 25.4 31.1534 25.4 31.1534 25.4C31.1535 25.4 31.1535 25.4 31.1536 25.4C31.1536 25.4 31.1536 25.4 31.1537 25.4C31.1537 25.4 31.1538 25.4 31.1538 25.4C31.1539 25.4 31.1539 25.4 31.154 25.4C31.154 25.4 31.1541 25.4 31.1541 25.4C31.1542 25.4 31.1542 25.4 31.1542 25.4C31.1543 25.4 31.1543 25.4 31.1544 25.4C31.1544 25.4 31.1545 25.4 31.1545 25.4C31.1546 25.4 31.1546 25.4 31.1547 25.4C31.1547 25.4 31.1548 25.4 31.1548 25.4C31.1548 25.4 31.1549 25.4 31.1549 25.4C31.155 25.4 31.155 25.4 31.1551 25.4C31.1551 25.4 31.1552 25.4 31.1552 25.4C31.1553 25.4 31.1553 25.4 31.1554 25.4C31.1554 25.4 31.1554 25.4 31.1555 25.4C31.1555 25.4 31.1556 25.4 31.1556 25.4C31.1557 25.4 31.1557 25.4 31.1558 25.4C31.1558 25.4 31.1559 25.4 31.1559 25.4C31.1559 25.4 31.156 25.4 31.156 25.4C31.1561 25.4 31.1561 25.4 31.1562 25.4C31.1562 25.4 31.1563 25.4 31.1563 25.4C31.1564 25.4 31.1564 25.4 31.1564 25.4C31.1565 25.4 31.1565 25.4 31.1566 25.4C31.1566 25.4 31.1567 25.4 31.1567 25.4C31.1568 25.4 31.1568 25.4 31.1569 25.4C31.1569 25.4 31.1569 25.4 31.157 25.4C31.157 25.4 31.1571 25.4 31.1571 25.4C31.1572 25.4 31.1572 25.4 31.1573 25.4C31.1573 25.4 31.1574 25.4 31.1574 25.4C31.1574 25.4 31.1575 25.4 31.1575 25.4C31.1576 25.4 31.1576 25.4 31.1577 25.4C31.1577 25.4 31.1578 25.4 31.1578 25.4C31.1578 25.4 31.1579 25.4 31.1579 25.4C31.158 25.4 31.158 25.4 31.1581 25.4C31.1581 25.4 31.1582 25.4 31.1582 25.4C31.1583 25.4 31.1583 25.4 31.1583 25.4C31.1584 25.4 31.1584 25.4 31.1585 25.4C31.1585 25.4 31.1586 25.4 31.1586 25.4C31.1587 25.4 31.1587 25.4 31.1587 25.4C31.1588 25.4 31.1588 25.4 31.1589 25.4C31.1589 25.4 31.159 25.4 31.159 25.4C31.1591 25.4 31.1591 25.4 31.1591 25.4C31.1592 25.4 31.1592 25.4 31.1593 25.4C31.1593 25.4 31.1594 25.4 31.1594 25.4C31.1595 25.4 31.1595 25.4 31.1595 25.4C31.1596 25.4 31.1596 25.4 31.1597 25.4C31.1597 25.4 31.1598 25.4 31.1598 25.4C31.1599 25.4 31.1599 25.4 31.1599 25.4C31.16 25.4 31.16 25.4 31.1601 25.4C31.1601 25.4 31.1602 25.4 31.1602 25.4C31.1603 25.4 31.1603 25.4 31.1603 25.4C31.1604 25.4 31.1604 25.4 31.1605 25.4C31.1605 25.4 31.1606 25.4 31.1606 25.4C31.1607 25.4 31.1607 25.4 31.1607 25.4C31.1608 25.4 31.1608 25.4 31.1609 25.4C31.1609 25.4 31.161 25.4 31.161 25.4C31.161 25.4 31.1611 25.4 31.1611 25.4C31.1612 25.4 31.1612 25.4 31.1613 25.4C31.1613 25.4 31.1614 25.4 31.1614 25.4C31.1614 25.4 31.1615 25.4 31.1615 25.4C31.1616 25.4 31.1616 25.4 31.1617 25.4C31.1617 25.4 31.1617 25.4 31.1618 25.4C31.1618 25.4 31.1619 25.4 31.1619 25.4C31.162 25.4 31.162 25.4 31.162 25.4C31.1621 25.4 31.1621 25.4 31.1622 25.4C31.1622 25.4 31.1623 25.4 31.1623 25.4C31.1624 25.4 31.1624 25.4 31.1624 25.4C31.1625 25.4 31.1625 25.4 31.1626 25.4C31.1626 25.4 31.1627 25.4 31.1627 25.4C31.1627 25.4 31.1628 25.4 31.1628 25.4C31.1629 25.4 31.1629 25.4 31.163 25.4C31.163 25.4 31.163 25.4 31.1631 25.4C31.1631 25.4 31.1632 25.4 31.1632 25.4C31.1633 25.4 31.1633 25.4 31.1633 25.4C31.1634 25.4 31.1634 25.4 31.1635 25.4C31.1635 25.4 31.1636 25.4 31.1636 25.4C31.1636 25.4 31.1637 25.4 31.1637 25.4C31.1638 25.4 31.1638 25.4 31.1639 25.4C31.1639 25.4 31.1639 25.4 31.164 25.4C31.164 25.4 31.1641 25.4 31.1641 25.4C31.1641 25.4 31.1642 25.4 31.1642 25.4C31.1643 25.4 31.1643 25.4 31.1644 25.4C31.1644 25.4 31.1644 25.4 31.1645 25.4C31.1645 25.4 31.1646 25.4 31.1646 25.4C31.1647 25.4 31.1647 25.4 31.1647 25.4C31.1648 25.4 31.1648 25.4 31.1649 25.4C31.1649 25.4 31.1649 25.4 31.165 25.4C31.165 25.4 31.1651 25.4 31.1651 25.4C31.1652 25.4 31.1652 25.4 31.1652 25.4C31.1653 25.4 31.1653 25.4 31.1654 25.4C31.1654 25.4 31.1655 25.4 31.1655 25.4C31.1655 25.4 31.1656 25.4 31.1656 25.4C31.1657 25.4 31.1657 25.4 31.1657 25.4C31.1658 25.4 31.1658 25.4 31.1659 25.4C31.1659 25.4 31.1659 25.4 31.166 25.4C31.166 25.4 31.1661 25.4 31.1661 25.4C31.1662 25.4 31.1662 25.4 31.1662 25.4C31.1663 25.4 31.1663 25.4 31.1664 25.4C31.1664 25.4 31.1664 25.4 31.1665 25.4C31.1665 25.4 31.1666 25.4 31.1666 25.4C31.1667 25.4 31.1667 25.4 31.1667 25.4C31.1668 25.4 31.1668 25.4 31.1669 25.4C31.1669 25.4 31.1669 25.4 31.167 25.4C31.167 25.4 31.1671 25.4 31.1671 25.4C31.1671 25.4 31.1672 25.4 31.1672 25.4C31.1673 25.4 31.1673 25.4 31.1673 25.4C31.1674 25.4 31.1674 25.4 31.1675 25.4C31.1675 25.4 31.1675 25.4 31.1676 25.4C31.1676 25.4 31.1677 25.4 31.1677 25.4C31.1678 25.4 31.1678 25.4 31.1678 25.4C31.1679 25.4 31.1679 25.4 31.168 25.4C31.168 25.4 31.168 25.4 31.1681 25.4C31.1681 25.4 31.1682 25.4 31.1682 25.4C31.1682 25.4 31.1683 25.4 31.1683 25.4C31.1684 25.4 31.1684 25.4 31.1684 25.4C31.1685 25.4 31.1685 25.4 31.1686 25.4C31.1686 25.4 31.1686 25.4 31.1687 25.4C31.1687 25.4 31.1688 25.4 31.1688 25.4C31.1688 25.4 31.1689 25.4 31.1689 25.4C31.169 25.4 31.169 25.4 31.169 25.4C31.1691 25.4 31.1691 25.4 31.1692 25.4C31.1692 25.4 31.1692 25.4 31.1693 25.4C31.1693 25.4 31.1693 25.4 31.1694 25.4C31.1694 25.4 31.1695 25.4 31.1695 25.4C31.1695 25.4 31.1696 25.4 31.1696 25.4C31.1697 25.4 31.1697 25.4 31.1697 25.4C31.1698 25.4 31.1698 25.4 31.1699 25.4C31.1699 25.4 31.1699 25.4 31.17 25.4V23.7ZM31.2667 23.7165C31.3094 23.7251 31.3467 23.7381 31.3752 23.7508C31.3989 23.7613 31.4105 23.7691 31.3973 23.7612L30.5227 25.2189C30.6007 25.2657 30.7401 25.3449 30.9333 25.3835L31.2667 23.7165ZM31.363 23.7416C31.2241 23.6669 31.1507 23.6256 31.09 23.58L30.07 24.94C30.2492 25.0745 30.4358 25.1732 30.557 25.2384L31.363 23.7416ZM31.0396 23.545C31.045 23.5485 31.0339 23.5413 30.995 23.513C30.9614 23.4885 30.9176 23.4561 30.865 23.4167C30.7601 23.3382 30.6276 23.2376 30.4856 23.1293C30.3441 23.0213 30.1948 22.9068 30.0566 22.8009C29.919 22.6953 29.7917 22.5976 29.6956 22.5243L28.6643 23.8757C28.7583 23.9474 28.8834 24.0435 29.0221 24.1498C29.1602 24.2557 29.3109 24.3713 29.4543 24.4807C29.7188 24.6826 30.0129 24.906 30.1203 24.975L31.0396 23.545ZM29.69 22.52C29.2165 22.1649 28.6067 22.301 28.2846 22.6768L29.5753 23.7832C29.3732 24.019 28.9834 24.1151 28.67 23.88L29.69 22.52ZM28.93 23.23C28.1697 22.8499 28.1698 22.8498 28.1698 22.8497C28.1698 22.8497 28.1698 22.8496 28.1699 22.8496C28.1699 22.8495 28.17 22.8494 28.17 22.8493C28.1701 22.8491 28.1702 22.8489 28.1703 22.8487C28.1705 22.8483 28.1707 22.8479 28.1709 22.8475C28.1713 22.8467 28.1717 22.8459 28.1721 22.8452C28.1729 22.8436 28.1737 22.842 28.1745 22.8404C28.1762 22.8372 28.178 22.8338 28.1799 22.8303C28.1835 22.8236 28.1885 22.8146 28.1949 22.804C28.1975 22.7996 28.2363 22.7316 28.3089 22.659L29.511 23.8611C29.5936 23.7785 29.6425 23.6954 29.6526 23.6786C29.6627 23.6617 29.6709 23.647 29.6767 23.6363C29.6797 23.6307 29.6823 23.6257 29.6845 23.6214C29.6856 23.6192 29.6867 23.6172 29.6876 23.6153C29.6881 23.6144 29.6886 23.6135 29.689 23.6126C29.6892 23.6122 29.6894 23.6118 29.6896 23.6114C29.6897 23.6112 29.6898 23.611 29.6899 23.6108C29.69 23.6107 29.69 23.6106 29.6901 23.6105C29.6901 23.6104 29.6902 23.6103 29.6902 23.6103C29.6902 23.6102 29.6902 23.6102 28.93 23.23ZM28.1382 22.9038C28.0123 23.1765 27.7923 23.6766 27.5992 24.2042C27.4193 24.6958 27.2148 25.3356 27.2003 25.8354L28.8996 25.8847C28.9051 25.6945 29.0106 25.2942 29.1957 24.7884C29.3676 24.3185 29.5676 23.8635 29.6817 23.6162L28.1382 22.9038ZM27.2004 25.8347C27.1801 26.5125 27.173 27.5156 27.4728 28.4869C27.7826 29.4907 28.4298 30.4867 29.698 31.0637L30.402 29.5163C29.6702 29.1834 29.2974 28.6343 29.0972 27.9856C28.887 27.3045 28.8798 26.5475 28.8996 25.8854L27.2004 25.8347ZM29.6968 31.0632C30.2887 31.3336 31.1349 31.3929 31.8424 31.3722C32.5683 31.3509 33.3664 31.2376 33.914 31.0199L33.2859 29.4402C33.0036 29.5524 32.4316 29.6542 31.7926 29.6729C31.1351 29.6922 30.6212 29.6165 30.4031 29.5169L29.6968 31.0632ZM33.9157 31.0192C34.7624 30.6805 35.4983 29.8211 36.0126 28.8561C36.5452 27.8568 36.9218 26.5968 36.9498 25.268L35.2502 25.2321C35.2282 26.2732 34.9298 27.2733 34.5124 28.0565C34.0767 28.8739 33.5875 29.3195 33.2843 29.4408L33.9157 31.0192ZM36.9499 25.2605C36.9733 23.3542 36.0857 21.4039 34.4953 19.4787L33.1847 20.5614C34.6343 22.3162 35.2666 23.8859 35.25 25.2396L36.9499 25.2605ZM34.493 19.4759L33.793 18.6359L32.487 19.7242L33.187 20.5642L34.493 19.4759ZM24.38 23.73C24.38 22.3363 24.6215 21.3004 24.9895 20.4611C25.3594 19.6174 25.8754 18.9303 26.4847 18.2469L25.2158 17.1156C24.5475 17.8651 23.9033 18.7048 23.4326 19.7785C22.9598 20.8566 22.68 22.1286 22.68 23.73H24.38ZM26.4847 18.2469C26.7487 17.9508 27.0246 17.6614 27.3152 17.3565L26.0847 16.1835C25.7978 16.4845 25.5019 16.7947 25.2158 17.1156L26.4847 18.2469ZM18.0557 5.8049C19.4828 8.12827 22.3374 12.8816 25.0996 18.0801L26.6008 17.2824C23.8155 12.0404 20.9407 7.25377 19.5043 4.91515L18.0557 5.8049ZM31.2203 31.7505C31.7337 33.4152 32.01 34.8147 32.01 35.87H33.71C33.71 34.5635 33.3767 32.9741 32.8448 31.2495L31.2203 31.7505Z" fill="#4C4B4B"/>
</svg>
