<svg width="43" height="57" viewBox="0 0 43 57" fill="none" xmlns="http://www.w3.org/2000/svg">
<path d="M24.52 27.66L24.42 30.35C24.4 32.75 23.83 35.12 22.77 37.28C22.1 38.59 21.15 39.74 20 40.66C19.91 40.72 19.81 40.75 19.71 40.75C19.65 40.76 19.6 40.76 19.54 40.75C19.42 40.71 19.31 40.67 19.2 40.61C18.88 40.44 18.56 40.26 18.26 40.05C17.92 39.84 15.75 38.17 14.83 37.45C14.64 37.31 14.37 37.34 14.23 37.53C14.21 37.55 14.2 37.58 14.18 37.61C13.6 38.88 12.12 42.29 12.07 43.99C11.96 47.27 13.51 50.72 16.97 54.86C17.12 55.06 17.12 55.33 16.97 55.53C16.87 55.68 16.7 55.77 16.52 55.77C16.46 55.78 16.41 55.78 16.35 55.77C12.4 54.52 8.78 52.38 5.77 49.52C2.8 46.73 1.07 42.86 1 38.79C1 29.86 4.77 25.91 8.76 21.73C12.9 17.39 17.15 12.9 19.15 1.45C19.19 1.2 19.4 1.02 19.65 1C19.8 1 19.94 1.04 20.05 1.14L21.33 2.28C29.05 9.28 34.11 15.2 37.2 20.8C40.21 26.26 41.71 32.42 41.56 38.65C41.56 47.98 33.7 54.65 26.1 55.72C25.81 55.8 25.51 55.62 25.43 55.33C25.37 55.09 25.47 54.85 25.67 54.72C27.91 52.66 31.67 48.33 31.79 42.51C31.85 38.51 29.98 34.19 26.25 29.68L24.53 27.61" stroke="#4C4B4B" stroke-width="1.7" stroke-linecap="round" stroke-linejoin="round"/>
</svg>
