<svg width="50" height="40" viewBox="0 0 50 40" fill="none" xmlns="http://www.w3.org/2000/svg">
<path d="M11.1428 17.8842C5.17985 17.9408 0.349609 22.8142 0.349609 28.7934C0.349609 31.7047 1.48015 34.4371 3.53282 36.4964C5.5855 38.5558 8.31783 39.6932 11.2294 39.7045H37.649C43.6642 39.7045 48.5582 34.8085 48.5582 28.7952C48.5582 22.7801 43.6622 17.886 37.649 17.886C36.4142 17.886 35.218 18.0899 34.0761 18.4841C33.3058 16.3386 31.9351 14.4173 30.143 12.9922C27.9499 11.2454 25.3059 10.3233 22.4922 10.3233C17.5055 10.3142 13.04 13.323 11.1439 17.8836L11.1428 17.8842ZM22.4934 12.4942C27.1742 12.4942 31.2161 15.6616 32.3239 20.2019C32.4054 20.5213 32.6207 20.7886 32.9152 20.9269C33.212 21.0651 33.5586 21.0651 33.8554 20.9201C35.0449 20.3469 36.3204 20.0568 37.6481 20.0568C42.4625 20.0568 46.3823 23.9718 46.3823 28.7911C46.3823 33.6103 42.4673 37.5253 37.6481 37.5253L11.2355 37.5275C6.43236 37.5162 2.52386 33.5945 2.52386 28.7933C2.52386 23.9789 6.44564 20.0591 11.2581 20.0591C11.4484 20.0591 11.6342 20.0659 11.8154 20.0772C12.3093 20.1112 12.7557 19.8099 12.9165 19.3409C14.3144 15.2447 18.166 12.494 22.4935 12.494L22.4934 12.4942Z" fill="black"/>
<path d="M45.6718 0.819404C45.4815 0.506749 45.1371 0.298309 44.7429 0.298309C44.5345 0.298309 44.3419 0.357214 44.181 0.454636H44.1742C44.1674 0.454636 44.1629 0.461433 44.1629 0.465964C44.0881 0.511278 44.0111 0.565654 43.9477 0.633618L40.1029 4.47838C39.6792 4.90205 39.6792 5.59308 40.1029 6.01445C40.5266 6.43812 41.2176 6.43812 41.639 6.01445L43.6577 3.99576V17.7708C44.4348 18.199 45.1666 18.7042 45.8327 19.2797L45.8349 4.05701L47.7947 6.01677C48.0099 6.232 48.2886 6.33622 48.565 6.33622C48.8437 6.33622 49.1223 6.232 49.3353 6.01677C49.759 5.5931 49.759 4.90207 49.3353 4.4807L45.6718 0.819404Z" fill="black"/>
<path d="M27.365 6.02085C27.7887 6.44452 28.4797 6.44452 28.9011 6.02085L30.9198 4.00215V11.5126C31.0014 11.576 31.0829 11.6349 31.1645 11.6984C31.8714 12.2602 32.5148 12.8878 33.1016 13.572V4.05657L35.0613 6.01633C35.2766 6.23156 35.5552 6.33578 35.8316 6.33578C36.1103 6.33578 36.389 6.23156 36.6019 6.01633C37.0256 5.59265 37.0256 4.90162 36.6019 4.48025L32.9429 0.821267C32.7526 0.508612 32.4083 0.300171 32.014 0.300171C31.8056 0.300171 31.613 0.359076 31.4521 0.456499H31.4453C31.4385 0.456499 31.434 0.463296 31.434 0.467827C31.3592 0.51314 31.2822 0.567517 31.2188 0.635481L27.374 4.48024C26.9367 4.90845 26.9367 5.59947 27.365 6.02084L27.365 6.02085Z" fill="black"/>
<path d="M18.7123 0.459229C18.7055 0.459229 18.7055 0.459229 18.7123 0.459229C18.7055 0.466025 18.701 0.466025 18.6942 0.470557C18.6194 0.515869 18.5424 0.570247 18.4789 0.638212L14.6342 4.48297C14.2105 4.90664 14.2105 5.59767 14.6342 6.01904C15.0578 6.44272 15.7489 6.44272 16.1702 6.01904L18.1889 4.00035V9.36535C18.8958 9.13426 19.6208 8.95981 20.3639 8.84426V4.05247L22.3237 6.01223C22.5389 6.22747 22.8176 6.33169 23.094 6.33169C23.3727 6.33169 23.6513 6.22747 23.8643 6.01223C24.288 5.58856 24.288 4.89753 23.8643 4.47616L20.2053 0.817176C20.015 0.504522 19.6706 0.296082 19.2764 0.296082C19.0657 0.298347 18.8753 0.354986 18.7122 0.459207L18.7123 0.459229Z" fill="black"/>
</svg>
