<svg width="200" height="207" viewBox="0 0 200 207" fill="none" xmlns="http://www.w3.org/2000/svg">
<path d="M163.22 185.651L149.073 158.187L151.896 156.366L178.473 197.402L128.96 206.836L128.333 203.535L161.112 193.97C39.019 171.844 20.7174 38.3831 20.5346 37.0696L23.8622 36.5992C24.0364 37.8884 43.1918 164.276 163.219 185.652L163.22 185.651Z" fill="#D9D9D9"/>
<path d="M50.6935 40.4681C50.6935 40.8881 50.7055 41.5841 51.1975 42.2201C51.8815 43.0961 53.2255 43.2041 53.8855 43.2041C56.1055 43.2041 57.3055 42.0401 57.3055 40.5041C57.3055 40.1441 57.2455 39.3041 56.4415 38.7761C55.9375 38.4401 55.7095 38.3921 53.6455 37.8641C52.5895 37.6121 52.0855 37.3481 52.0855 36.5801C52.0855 35.7161 52.8055 35.1761 54.0055 35.1761C54.8575 35.1761 55.7695 35.4161 55.8295 36.4961H57.0775C57.0535 36.1361 57.0295 35.5481 56.5495 35.0201C55.8535 34.2641 54.6895 34.1681 54.1135 34.1681C52.4815 34.1681 50.8135 34.9361 50.8135 36.7001C50.8135 37.2761 51.0055 37.9241 51.7135 38.4041C52.1575 38.7041 52.7455 38.8481 54.0655 39.1721C55.2775 39.4721 56.0575 39.6641 56.0575 40.6361C56.0575 41.0681 55.8295 42.1841 54.0295 42.1841C52.0375 42.1841 51.9655 41.0681 51.9415 40.4681H50.6935ZM58.403 40.0601C58.403 41.8241 59.375 43.2041 61.367 43.2041C63.419 43.2041 64.415 41.7401 64.415 39.9761C64.415 38.7161 63.875 36.8201 61.463 36.8201C59.099 36.8201 58.403 38.5721 58.403 40.0601ZM59.579 39.9881C59.579 38.1041 60.743 37.6481 61.463 37.6481C62.519 37.6481 63.215 38.4401 63.215 39.9401C63.215 41.7521 62.243 42.3641 61.391 42.3641C60.107 42.3641 59.579 41.2241 59.579 39.9881ZM71.1308 43.0001H72.2708L74.9108 36.9761H73.6628L71.7908 41.7521L69.8708 36.9761H68.6108L71.1308 43.0001ZM76.0828 35.5961H77.4388V34.3601H76.0828V35.5961ZM76.2028 43.0001H77.3308V36.9761H76.2028V43.0001ZM84.5466 40.1921C84.5706 39.2081 84.6306 36.8201 81.9306 36.8201C81.5826 36.8201 80.8626 36.8561 80.2866 37.2641C79.3386 37.9241 79.0986 38.9081 79.0986 40.0961C79.0986 42.0041 79.9986 43.1801 81.8946 43.1801C83.1066 43.1801 83.7066 42.6761 83.9706 42.3761C84.4026 41.9081 84.4506 41.4161 84.4866 41.1161H83.3586C83.2626 41.9801 82.6746 42.3641 81.9426 42.3641C80.7066 42.3641 80.1906 41.4401 80.2146 40.1921H84.5466ZM80.2626 39.4001C80.2866 38.0681 81.1746 37.6241 81.9066 37.6241C83.2986 37.6241 83.4066 38.8241 83.3946 39.4001H80.2626ZM86.2226 43.0001H87.3506V34.3481H86.2226V43.0001ZM92.3383 41.2121C92.3263 42.6641 93.4663 43.1681 94.6903 43.1681C95.3143 43.1681 95.9503 43.0841 96.4783 42.7601C96.9223 42.4841 97.2943 41.9081 97.2943 41.2361C97.2943 40.8521 97.1743 40.4321 96.8383 40.1201C96.4783 39.7841 96.1183 39.6881 94.4503 39.2921C94.1383 39.2081 93.5983 39.0761 93.5983 38.5241C93.5983 37.6601 94.6543 37.6601 94.8223 37.6601C95.2303 37.6601 96.0223 37.7321 95.9863 38.6441H97.1383C97.1383 38.3921 97.1383 38.1041 96.9823 37.7681C96.6223 37.0481 95.5663 36.8321 94.8103 36.8321C93.4183 36.8321 92.4583 37.5521 92.4583 38.6561C92.4583 39.9161 93.5143 40.1681 94.7743 40.4561C95.6743 40.6601 96.0943 40.7681 96.0943 41.3561C96.0943 41.5601 96.0223 41.7641 95.9023 41.9201C95.6623 42.2201 95.3143 42.3041 94.8463 42.3041C93.7543 42.3041 93.5143 41.6681 93.5263 41.2121H92.3383ZM98.8423 45.3161H99.9583V42.3281C100.282 42.8561 100.93 43.2281 101.806 43.2281C103.246 43.2281 104.554 42.2441 104.554 40.0001C104.554 37.7681 103.318 36.8801 102.022 36.8801C101.53 36.8801 100.534 37.0241 99.9703 37.9721L99.9463 36.9761H98.8063C98.8303 37.5521 98.8423 37.6961 98.8423 37.9601V45.3161ZM99.9223 40.1681C99.9223 39.6281 99.9223 37.7201 101.722 37.7201C103.054 37.7201 103.378 38.8481 103.378 39.9281C103.378 40.3601 103.318 41.2241 102.886 41.8121C102.502 42.3401 101.902 42.4001 101.614 42.4001C100.03 42.4001 99.9223 40.9001 99.9223 40.1681ZM110.906 43.0001C110.822 42.3881 110.81 41.5841 110.81 41.4881L110.858 38.6081C110.858 38.3321 110.846 38.0441 110.654 37.6841C110.33 37.0721 109.394 36.7961 108.518 36.7961C107.882 36.7961 107.03 36.9401 106.574 37.4441C106.226 37.8521 106.19 38.2721 106.154 38.5841H107.282C107.294 38.3441 107.354 37.5641 108.494 37.5641C108.818 37.5641 109.31 37.6601 109.538 37.9601C109.754 38.2241 109.754 38.5481 109.754 39.2921C109.406 39.2681 109.226 39.2561 108.938 39.2561C108.458 39.2561 107.498 39.2921 106.85 39.6521C105.962 40.1681 105.794 40.9361 105.794 41.4161C105.794 42.4121 106.538 43.1921 107.918 43.1921C108.422 43.1921 109.238 43.0961 109.778 42.1001C109.778 42.4121 109.802 42.7001 109.886 43.0001H110.906ZM109.754 40.0721C109.73 40.9121 109.718 41.2481 109.466 41.6561C109.19 42.0761 108.758 42.3041 108.182 42.3041C107.174 42.3041 106.934 41.6441 106.934 41.2601C106.934 40.0361 108.65 40.0361 109.106 40.0361C109.382 40.0361 109.55 40.0481 109.754 40.0721ZM112.942 43.0001H114.082V39.7961C114.082 38.7641 114.394 37.9721 115.726 37.9721C115.858 37.9721 115.966 37.9721 116.05 37.9841C116.134 37.9961 116.206 38.0081 116.266 38.0321V36.9281C116.074 36.9161 115.822 36.9041 115.486 36.9521C114.982 37.0241 114.262 37.3001 114.046 38.1401L114.022 36.9761H112.882C112.918 37.3721 112.942 37.7921 112.942 38.2001V43.0001ZM122.562 40.1921C122.586 39.2081 122.646 36.8201 119.946 36.8201C119.598 36.8201 118.878 36.8561 118.302 37.2641C117.354 37.9241 117.114 38.9081 117.114 40.0961C117.114 42.0041 118.014 43.1801 119.91 43.1801C121.122 43.1801 121.722 42.6761 121.986 42.3761C122.418 41.9081 122.466 41.4161 122.502 41.1161H121.374C121.278 41.9801 120.69 42.3641 119.958 42.3641C118.722 42.3641 118.206 41.4401 118.23 40.1921H122.562ZM118.278 39.4001C118.302 38.0681 119.19 37.6241 119.922 37.6241C121.314 37.6241 121.422 38.8241 121.41 39.4001H118.278ZM124.25 43.0001H125.378V39.5321C125.378 38.3201 126.134 37.7321 126.95 37.7321C127.334 37.7321 127.73 37.8641 128.018 38.1401C128.294 38.4161 128.342 38.7761 128.342 39.1721V43.0001H129.494V38.9081C129.494 37.0601 127.85 36.8561 127.31 36.8561C125.942 36.8561 125.51 37.6961 125.378 37.9481L125.366 36.9761H124.238L124.25 37.6721V43.0001ZM134.506 40.4681C134.506 40.8881 134.518 41.5841 135.01 42.2201C135.694 43.0961 137.038 43.2041 137.698 43.2041C139.918 43.2041 141.118 42.0401 141.118 40.5041C141.118 40.1441 141.058 39.3041 140.254 38.7761C139.75 38.4401 139.522 38.3921 137.458 37.8641C136.402 37.6121 135.898 37.3481 135.898 36.5801C135.898 35.7161 136.618 35.1761 137.818 35.1761C138.67 35.1761 139.582 35.4161 139.642 36.4961H140.89C140.866 36.1361 140.842 35.5481 140.362 35.0201C139.666 34.2641 138.502 34.1681 137.926 34.1681C136.294 34.1681 134.626 34.9361 134.626 36.7001C134.626 37.2761 134.818 37.9241 135.526 38.4041C135.97 38.7041 136.558 38.8481 137.878 39.1721C139.09 39.4721 139.87 39.6641 139.87 40.6361C139.87 41.0681 139.642 42.1841 137.842 42.1841C135.85 42.1841 135.778 41.0681 135.754 40.4681H134.506ZM142.786 35.5961H144.142V34.3601H142.786V35.5961ZM142.906 43.0001H144.034V36.9761H142.906V43.0001ZM151.25 40.1921C151.274 39.2081 151.334 36.8201 148.634 36.8201C148.286 36.8201 147.566 36.8561 146.99 37.2641C146.042 37.9241 145.802 38.9081 145.802 40.0961C145.802 42.0041 146.702 43.1801 148.598 43.1801C149.81 43.1801 150.41 42.6761 150.674 42.3761C151.106 41.9081 151.154 41.4161 151.19 41.1161H150.062C149.966 41.9801 149.378 42.3641 148.646 42.3641C147.41 42.3641 146.894 41.4401 146.918 40.1921H151.25ZM146.966 39.4001C146.99 38.0681 147.878 37.6241 148.61 37.6241C150.002 37.6241 150.11 38.8241 150.098 39.4001H146.966ZM156.23 43.0001H157.37V39.5801C157.37 39.1961 157.382 38.7041 157.634 38.3561C157.766 38.1761 158.186 37.6961 158.954 37.6961C159.842 37.6961 160.274 38.2721 160.274 39.0161V43.0001H161.414V39.6281C161.414 39.3641 161.414 38.7041 161.678 38.3321C161.834 38.1161 162.23 37.6961 162.962 37.6961C163.538 37.6961 163.922 37.9481 164.114 38.2241C164.222 38.3801 164.318 38.6081 164.318 39.1361V43.0001H165.458V38.9561C165.458 37.1801 164.114 36.8201 163.25 36.8201C161.918 36.8201 161.426 37.6121 161.222 37.9481C161.006 37.5041 160.586 36.8201 159.254 36.8201C158.738 36.8201 157.922 36.9041 157.346 37.8521V36.9761H156.206L156.23 37.7801V43.0001ZM167.466 35.5961H168.822V34.3601H167.466V35.5961ZM167.586 43.0001H168.714V36.9761H167.586V43.0001ZM169.989 37.7801H171.057V41.8001C171.057 42.7841 171.549 43.0841 172.581 43.0841C172.989 43.0841 173.313 43.0481 173.517 43.0121V42.1361C173.421 42.1601 173.205 42.1961 172.977 42.1961C172.173 42.1961 172.173 41.6921 172.173 41.3921V37.7801H173.517V36.9521H172.173V35.3321L171.057 35.6921V36.9521H169.989V37.7801ZM55.2535 60.7921C55.1095 60.5401 54.6775 59.7721 53.3815 59.7721C51.9655 59.7721 50.6575 60.7681 50.6575 63.0601C50.6575 65.7001 52.4455 66.1201 53.2495 66.1201C53.6575 66.1201 54.2455 66.0121 54.7375 65.6761C55.0495 65.4601 55.1815 65.2081 55.2775 65.0401L55.3015 66.0001H56.4295C56.4055 65.6881 56.3815 65.1721 56.3815 65.0401V57.3481H55.2535V60.7921ZM55.2895 62.9041C55.2895 63.3721 55.2895 65.3281 53.5135 65.3281C52.1335 65.3281 51.8575 64.0921 51.8575 63.0241C51.8575 62.6161 51.8575 60.6121 53.5135 60.6121C54.1495 60.6121 54.5935 60.9121 54.8335 61.2241C55.0855 61.5481 55.2895 62.0281 55.2895 62.9041ZM63.4294 63.1921C63.4534 62.2081 63.5134 59.8201 60.8134 59.8201C60.4654 59.8201 59.7454 59.8561 59.1694 60.2641C58.2214 60.9241 57.9814 61.9081 57.9814 63.0961C57.9814 65.0041 58.8814 66.1801 60.7774 66.1801C61.9894 66.1801 62.5894 65.6761 62.8534 65.3761C63.2854 64.9081 63.3334 64.4161 63.3694 64.1161H62.2414C62.1454 64.9801 61.5574 65.3641 60.8254 65.3641C59.5894 65.3641 59.0734 64.4401 59.0974 63.1921H63.4294ZM59.1454 62.4001C59.1694 61.0681 60.0574 60.6241 60.7894 60.6241C62.1814 60.6241 62.2894 61.8241 62.2774 62.4001H59.1454ZM65.0694 66.0001H66.2094V62.5801C66.2094 62.1961 66.2214 61.7041 66.4734 61.3561C66.6054 61.1761 67.0254 60.6961 67.7934 60.6961C68.6814 60.6961 69.1134 61.2721 69.1134 62.0161V66.0001H70.2534V62.6281C70.2534 62.3641 70.2534 61.7041 70.5174 61.3321C70.6734 61.1161 71.0694 60.6961 71.8014 60.6961C72.3774 60.6961 72.7614 60.9481 72.9534 61.2241C73.0614 61.3801 73.1574 61.6081 73.1574 62.1361V66.0001H74.2974V61.9561C74.2974 60.1801 72.9534 59.8201 72.0894 59.8201C70.7574 59.8201 70.2654 60.6121 70.0614 60.9481C69.8454 60.5041 69.4254 59.8201 68.0934 59.8201C67.5774 59.8201 66.7614 59.9041 66.1854 60.8521V59.9761H65.0454L65.0694 60.7801V66.0001ZM79.7533 57.3361V66.0001H80.9533V62.0881H85.0693V66.0001H86.2693V57.3361H85.0693V61.0561H80.9533V57.3361H79.7533ZM93.4294 63.1921C93.4534 62.2081 93.5134 59.8201 90.8134 59.8201C90.4654 59.8201 89.7454 59.8561 89.1694 60.2641C88.2214 60.9241 87.9814 61.9081 87.9814 63.0961C87.9814 65.0041 88.8814 66.1801 90.7774 66.1801C91.9894 66.1801 92.5894 65.6761 92.8534 65.3761C93.2854 64.9081 93.3334 64.4161 93.3694 64.1161H92.2414C92.1454 64.9801 91.5574 65.3641 90.8254 65.3641C89.5894 65.3641 89.0734 64.4401 89.0974 63.1921H93.4294ZM89.1454 62.4001C89.1694 61.0681 90.0574 60.6241 90.7894 60.6241C92.1814 60.6241 92.2894 61.8241 92.2774 62.4001H89.1454ZM94.9734 58.5961H96.3294V57.3601H94.9734V58.5961ZM95.0934 66.0001H96.2214V59.9761H95.0934V66.0001ZM97.7252 66.0001H102.225V65.1241H98.9012L102.225 60.9361V59.9761H97.8932V60.8281H100.941L97.7252 64.8361V66.0001ZM103.633 59.9761V64.0201C103.633 65.2081 104.329 66.0601 105.817 66.0601C107.113 66.0601 107.521 65.3881 107.737 64.9681L107.761 66.0001H108.937C108.925 65.6641 108.901 64.9921 108.901 64.8721V59.9761H107.737V63.3841C107.737 63.6841 107.737 64.1521 107.485 64.5121C107.161 64.9921 106.633 65.1841 106.069 65.1841C104.917 65.1841 104.785 64.4401 104.785 63.8521V59.9761H103.633ZM111.125 66.0001H112.253V62.5321C112.253 61.3201 113.009 60.7321 113.825 60.7321C114.209 60.7321 114.605 60.8641 114.893 61.1401C115.169 61.4161 115.217 61.7761 115.217 62.1721V66.0001H116.369V61.9081C116.369 60.0601 114.725 59.8561 114.185 59.8561C112.817 59.8561 112.385 60.6961 112.253 60.9481L112.241 59.9761H111.113L111.125 60.6721V66.0001ZM118.305 66.4681C118.353 67.2841 118.425 68.4121 120.837 68.4121C121.665 68.4121 122.841 68.2921 123.345 67.3321C123.585 66.8761 123.633 66.2881 123.633 64.8361L123.645 61.0681L123.669 59.9761H122.577L122.565 60.8041C122.325 60.4921 121.881 59.8921 120.669 59.8921C119.193 59.8921 117.993 60.8881 117.993 62.9281C117.993 63.7321 118.161 64.5361 118.677 65.1481C119.181 65.7721 119.973 65.8921 120.525 65.8921C120.885 65.8921 122.025 65.8681 122.505 64.8721C122.505 66.5041 122.481 67.6441 120.909 67.6441C119.841 67.6441 119.553 67.1401 119.505 66.4681H118.305ZM120.813 65.0521C119.433 65.0521 119.157 63.8281 119.157 62.9041C119.157 62.1361 119.349 60.6961 120.777 60.6961C121.293 60.6961 121.773 60.9001 122.073 61.2241C122.373 61.5361 122.541 61.9681 122.541 62.7241C122.541 63.8161 122.373 64.1401 122.133 64.4521C121.857 64.8121 121.473 65.0521 120.813 65.0521ZM125.221 64.2121C125.209 65.6641 126.349 66.1681 127.573 66.1681C128.197 66.1681 128.833 66.0841 129.361 65.7601C129.805 65.4841 130.177 64.9081 130.177 64.2361C130.177 63.8521 130.057 63.4321 129.721 63.1201C129.361 62.7841 129.001 62.6881 127.333 62.2921C127.021 62.2081 126.481 62.0761 126.481 61.5241C126.481 60.6601 127.537 60.6601 127.705 60.6601C128.113 60.6601 128.905 60.7321 128.869 61.6441H130.021C130.021 61.3921 130.021 61.1041 129.865 60.7681C129.505 60.0481 128.449 59.8321 127.693 59.8321C126.301 59.8321 125.341 60.5521 125.341 61.6561C125.341 62.9161 126.397 63.1681 127.657 63.4561C128.557 63.6601 128.977 63.7681 128.977 64.3561C128.977 64.5601 128.905 64.7641 128.785 64.9201C128.545 65.2201 128.197 65.3041 127.729 65.3041C126.637 65.3041 126.397 64.6681 126.409 64.2121H125.221ZM131.209 63.3001H134.221V62.3881H131.209V63.3001ZM142.261 59.6761C142.105 57.7081 140.377 57.2161 139.153 57.2161C136.069 57.2161 135.361 59.9401 135.361 61.7641C135.361 63.4441 135.949 66.1321 138.997 66.1321C140.485 66.1321 142.057 65.4241 142.237 63.7201H140.917C140.881 63.9241 140.809 64.2961 140.497 64.6321C140.125 65.0161 139.621 65.1481 139.093 65.1481C137.113 65.1481 136.645 63.3841 136.645 61.7521C136.645 60.3121 137.017 58.1761 139.105 58.1761C140.773 58.1761 140.929 59.3761 140.977 59.6761H142.261ZM143.761 66.0001H144.901V62.8081C144.901 62.4361 144.901 61.8721 145.093 61.5361C145.249 61.2481 145.669 60.7321 146.509 60.7321C147.805 60.7321 147.805 61.8961 147.805 62.4361V66.0001H148.957V62.2321C148.957 61.3561 148.873 61.0681 148.753 60.8281C148.405 60.0961 147.493 59.8681 146.857 59.8681C146.017 59.8681 145.273 60.2281 144.901 60.8641V57.3481H143.761V66.0001ZM156.113 63.1921C156.137 62.2081 156.197 59.8201 153.497 59.8201C153.149 59.8201 152.429 59.8561 151.853 60.2641C150.905 60.9241 150.665 61.9081 150.665 63.0961C150.665 65.0041 151.565 66.1801 153.461 66.1801C154.673 66.1801 155.273 65.6761 155.537 65.3761C155.969 64.9081 156.017 64.4161 156.053 64.1161H154.925C154.829 64.9801 154.241 65.3641 153.509 65.3641C152.273 65.3641 151.757 64.4401 151.781 63.1921H156.113ZM151.829 62.4001C151.853 61.0681 152.741 60.6241 153.473 60.6241C154.865 60.6241 154.973 61.8241 154.961 62.4001H151.829ZM162.337 61.9081C162.313 61.5721 162.277 61.0801 161.833 60.5641C161.281 59.9041 160.381 59.8201 159.985 59.8201C158.785 59.8201 157.249 60.5641 157.249 63.0721C157.249 64.3201 157.609 64.9561 157.969 65.3761C158.605 66.0721 159.541 66.1561 159.949 66.1561C161.437 66.1561 162.313 65.1721 162.385 63.9961H161.245C161.221 64.5841 160.897 65.3041 159.937 65.3041C158.737 65.3041 158.437 64.1521 158.437 62.9161C158.437 62.4601 158.437 60.6481 159.997 60.6481C161.089 60.6481 161.173 61.6321 161.197 61.9081H162.337ZM163.083 66.0001H164.199V62.7481L166.611 66.0001H168.087L165.387 62.5321L167.931 59.9761H166.455L164.199 62.4361V57.2761H163.083V66.0001Z" fill="black"/>
</svg>
